<?xml version="1.0" encoding="UTF-8"?>
<svg width="219px" height="52px" viewBox="0 0 219 52" version="1.1" xmlns="http://www.w3.org/2000/svg" xmlns:xlink="http://www.w3.org/1999/xlink">
    <title>Unaito - Login Logo</title>
    <g id="Projects" stroke="none" stroke-width="1" fill="none" fill-rule="evenodd">
        <g id="00-Login" transform="translate(-167.000000, -83.000000)" fill-rule="nonzero">
            <g id="Unaito---Login-Logo" transform="translate(167.000000, 83.000000)">
                <g id="Group-55-Copy">
                    <path d="M12.9155291,43.7786433 L4.62135283,43.7812504 L4.45794523,43.785882 L4.28251827,43.8039651 C2.92525283,43.985573 1.91945665,45.1329311 1.91997459,46.5037503 C1.9205151,47.9301075 3.00661526,49.1019277 4.38522696,49.2149762 L4.55901955,49.2235347 L12.8593854,49.2209781 L13.022793,49.2163465 L13.19822,49.1982634 C14.5554855,49.0166555 15.5612816,47.8692974 15.5607637,46.4984782 C15.5602007,45.0126894 14.38173,43.8030911 12.9155291,43.7786433 Z M64.9075937,43.7718894 L57.816746,43.7718085 L57.6482817,43.7793372 C56.2368339,43.8843254 55.1447637,45.0638483 55.1447637,46.4931407 C55.1447637,47.9390288 56.2591279,49.1203126 57.6649728,49.2090417 L57.8350207,49.2143919 L64.8936632,49.2146586 L65.1019903,49.20692 C66.5068455,49.1019401 67.5978507,47.9213268 67.5978507,46.4931407 C67.5978507,45.0472525 66.4834864,43.8659687 65.0776415,43.7772396 L64.9075937,43.7718894 Z M35.2314213,0 L34.91093,0.003239117 L34.5795091,0.013616123 C26.7455085,0.342921025 20.430117,6.61732709 19.9386755,14.4873178 L19.9209914,14.8304835 L19.906705,15.2388601 L19.5146223,15.3167691 L19.1802825,15.3897786 C13.4737706,16.703431 8.98750454,21.2319695 7.6718445,26.9785317 L7.59672523,27.3247711 L7.50991203,27.7568613 L2.70014015,27.7606899 L2.53665432,27.7654027 L2.36123619,27.7835732 C1.00405847,27.965857 -0.00118043244,29.1137176 1.04036221e-06,30.4845366 C0.00124292956,31.9108939 1.08791353,33.0821707 2.46658359,33.1945325 L2.64038078,33.2030044 L9.87387288,33.2028764 L9.83227438,33.1995826 L9.96791328,33.2034049 C11.3957601,33.2034049 12.5650415,32.0777322 12.6529523,30.6472222 L12.6684233,30.0161298 C12.9061522,24.6743054 17.2795655,20.4456462 22.597508,20.4456462 C23.6550253,20.4456462 24.6927608,20.6115521 25.6745972,20.9348742 L26.040095,21.0634823 L26.2448609,21.1313583 C27.5960507,21.5220094 29.0196043,20.7989676 29.5097938,19.4634304 C30.0067528,18.1094498 29.3704797,16.6113999 28.0905652,16.033684 L27.927259,15.9663399 L27.4760563,15.8052608 L27.0149107,15.657085 C26.7096574,15.5643493 26.4016981,15.4813776 26.0919247,15.408371 L25.5958795,15.3004187 L25.2813735,15.2384141 L25.3239319,14.6133072 C25.7471092,9.54194142 29.9021075,5.58856024 34.9514898,5.4465134 L35.2329131,5.44256014 L35.5226321,5.44690083 L35.805122,5.45920297 C40.680458,5.74159491 44.6234214,9.57457811 45.1156565,14.4543205 L45.1402083,14.7369876 L45.1688786,15.238204 L44.7498836,15.3233847 L44.3994162,15.400923 C39.4311414,16.5617002 35.3400225,20.1626115 33.5265481,25.0019765 C32.9993737,26.4087728 33.7007636,27.9803919 35.0908817,28.5119426 C36.4236806,29.0215757 37.9073392,28.3905976 38.4904373,27.0943376 L38.5585581,26.9288744 L38.6063329,26.8040138 L38.7228674,26.5176578 C40.2856268,22.8412337 43.8772844,20.4456462 47.8577929,20.4456462 C53.2533067,20.4456462 57.6434016,24.7863213 57.7931803,30.1963892 L57.7971306,30.4820994 L57.7970616,32.4404046 L57.8045329,32.6108781 C57.9043576,33.9801974 58.980645,35.0501139 60.3043131,35.136996 L60.4783085,35.1429896 L60.600745,35.1409205 L60.7208496,35.1354187 L60.7477153,35.1389031 L60.8909879,35.1425842 L67.9812339,35.1429896 L68.1502999,35.1351364 C69.5029373,35.0345226 70.5622576,33.9470533 70.6483169,32.6077929 L70.6539667,32.4317393 L70.6499736,32.2712608 L70.6356523,32.1031068 C70.4856238,30.7983022 69.4295,29.7910365 68.1406823,29.7059147 L67.9635554,29.7000816 L63.1568989,29.7000083 L63.1265526,29.2234995 L63.0940644,28.8706816 C62.411957,22.2731309 57.6257828,16.8449084 51.266218,15.3882969 L50.829108,15.2947428 L50.551085,15.238088 L50.5178375,14.5076288 C50.0265453,6.4882811 43.5145206,0.177450475 35.5644145,0.003696566 L35.2314213,0 Z" id="Combined-Shape" fill="#0D72FF"></path>
                    <path d="M47.6065906,28.5212316 C49.0964101,28.5212316 50.3013579,29.6645224 50.3266043,31.0937866 L50.3266043,36.4158656 C50.3266043,44.6173898 43.4024956,51.2720195 34.8541839,51.2720195 C26.4028881,51.2720195 19.5205311,44.7608916 19.3837846,36.6529597 L19.3818078,36.4128487 L19.3818078,31.1211886 C19.3818078,29.6885751 20.5964253,28.5212316 22.1017773,28.5212316 C23.5916258,28.5212316 24.7965079,29.6645362 24.8214933,31.0937205 L24.8217343,36.4158859 C24.8217343,41.7521628 29.3165762,46.0721056 34.8541839,46.0721056 C40.3265138,46.0721056 44.7963496,41.847678 44.8851809,36.5841328 L44.88662,36.4190107 L44.8866335,31.1211886 C44.8866335,29.6885751 46.1012386,28.5212316 47.6065906,28.5212316 Z" id="Shape" fill="#FA6400"></path>
                </g>
                <path d="M97.4711132,38.3297973 C103.191113,38.3297973 107.975113,33.9271306 107.975113,28.1031306 L107.975113,15.7271306 C107.975113,13.9937973 106.86578,13.0231306 105.375113,13.0231306 C103.884446,13.0231306 102.775113,13.9937973 102.775113,15.7271306 L102.775113,27.8257973 C102.775113,30.8764639 100.62578,33.5457973 97.4711132,33.5457973 C94.1777799,33.5457973 92.1324465,31.0151306 92.1324465,27.8257973 L92.1324465,15.7271306 C92.1324465,13.9937973 91.0231132,13.0231306 89.5324465,13.0231306 C88.0417799,13.0231306 86.9324465,13.9937973 86.9324465,15.7271306 L86.9324465,28.1031306 C86.9324465,33.9964639 91.6817799,38.3297973 97.4711132,38.3297973 Z M132.010669,38.1217973 C133.501335,38.1217973 134.610669,37.1511306 134.610669,35.4177973 L134.610669,15.7271306 C134.610669,13.9937973 133.501335,13.0231306 132.010669,13.0231306 C130.520002,13.0231306 129.410669,13.9937973 129.410669,15.7271306 L129.410669,28.8311306 L129.341335,28.8311306 L118.352002,14.1671306 C117.901335,13.5431306 116.826669,13.0231306 116.168002,13.0231306 C114.677335,13.0231306 113.568002,13.9937973 113.568002,15.7271306 L113.568002,35.4177973 C113.568002,37.1511306 114.677335,38.1217973 116.168002,38.1217973 C117.658669,38.1217973 118.768002,37.1511306 118.768002,35.4177973 L118.768002,22.4871306 L118.837335,22.4871306 L129.826669,36.9777973 C130.312002,37.6017973 131.352002,38.1217973 132.010669,38.1217973 Z M158.230224,38.1217973 C159.512891,38.1217973 160.622224,37.1857973 160.622224,35.8337973 C160.622224,35.5911306 160.552891,35.1057973 160.344891,34.5511306 L153.550224,15.6924639 C152.960891,14.0284639 151.678224,12.8151306 149.840891,12.8151306 C148.072891,12.8151306 146.720891,14.0977973 146.131558,15.6924639 L139.163558,34.5511306 C139.094224,34.7244639 138.920891,35.1404639 138.920891,35.6951306 C138.920891,37.0817973 140.099558,38.1217973 141.486224,38.1217973 C142.907558,38.1217973 143.635558,37.3591306 143.982224,36.2844639 L145.022224,33.0604639 L154.659558,33.0604639 L155.699558,36.3191306 C156.046224,37.3591306 156.774224,38.1217973 158.230224,38.1217973 Z M153.099558,28.2764639 L146.512891,28.2764639 L149.806224,18.2231306 L149.875558,18.2231306 L153.099558,28.2764639 Z M167.740446,38.1217973 C169.231113,38.1217973 170.340446,37.1511306 170.340446,35.4177973 L170.340446,15.7271306 C170.340446,13.9937973 169.231113,13.0231306 167.740446,13.0231306 C166.24978,13.0231306 165.140446,13.9937973 165.140446,15.7271306 L165.140446,35.4177973 C165.140446,37.1511306 166.24978,38.1217973 167.740446,38.1217973 Z M183.109335,38.1217973 C184.600002,38.1217973 185.709335,37.1511306 185.709335,35.4177973 L185.709335,18.0151306 L189.488002,18.0151306 C191.152002,18.0151306 191.845335,16.8017973 191.845335,15.6231306 C191.845335,14.4097973 190.978669,13.2311306 189.488002,13.2311306 L176.730669,13.2311306 C175.240002,13.2311306 174.373335,14.4097973 174.373335,15.6231306 C174.373335,16.8017973 175.066669,18.0151306 176.730669,18.0151306 L180.509335,18.0151306 L180.509335,35.4177973 C180.509335,37.1511306 181.618669,38.1217973 183.109335,38.1217973 Z M206.832891,38.3297973 C213.939558,38.3297973 218.758224,32.7484639 218.758224,25.5724639 C218.758224,18.5351306 213.800891,12.8151306 206.832891,12.8151306 C199.760891,12.8151306 194.907558,18.3617973 194.907558,25.5724639 C194.907558,32.7484639 199.795558,38.3297973 206.832891,38.3297973 Z M206.832891,33.5457973 C202.430224,33.5457973 200.315558,29.8017973 200.315558,25.5724639 C200.315558,21.3777973 202.499558,17.5991306 206.832891,17.5991306 C211.166224,17.5991306 213.350224,21.3777973 213.350224,25.5724639 C213.350224,29.8017973 211.235558,33.5457973 206.832891,33.5457973 Z" id="UNAITO" fill="#737373"></path>
            </g>
        </g>
    </g>
</svg>