<?xml version="1.0" encoding="UTF-8"?>
<svg width="24px" height="24px" viewBox="0 0 24 24" version="1.1" xmlns="http://www.w3.org/2000/svg" xmlns:xlink="http://www.w3.org/1999/xlink">
    <!-- Generator: Sketch 53 (72520) - https://sketchapp.com -->
    <title>icon-analysis</title>
    <desc>Created with Sketch.</desc>
    <defs>
        <linearGradient x1="-0.000130878759%" y1="49.9975601%" x2="100.005043%" y2="49.9975601%" id="linearGradient-1">
            <stop stop-color="#00F2FE" offset="0%"></stop>
            <stop stop-color="#03EFFE" offset="2.1%"></stop>
            <stop stop-color="#24D2FE" offset="29.3%"></stop>
            <stop stop-color="#3CBDFE" offset="55.4%"></stop>
            <stop stop-color="#4AB0FE" offset="79.6%"></stop>
            <stop stop-color="#4FACFE" offset="100%"></stop>
        </linearGradient>
    </defs>
    <g id="icon-analysis" stroke="none" stroke-width="1" fill="none" fill-rule="evenodd">
        <g id="Analysis" fill="url(#linearGradient-1)" fill-rule="nonzero">
            <path d="M23.9999531,2.83035938 L23.9999531,5.59059375 C23.9999531,6.10734375 23.5810312,6.52626562 23.0642813,6.52626562 C22.5475313,6.52626562 22.1286094,6.10734375 22.1286094,5.59059375 L22.1286094,3.2645625 L15.3048281,10.0869844 C14.7591562,10.63275 14.0160469,10.9379062 13.2675,10.9237969 C12.5476406,10.9103906 11.8613906,10.6131562 11.3351719,10.0868906 L10.2351094,8.98682813 C10.0437187,8.7954375 9.7993125,8.680125 9.58129687,8.67834375 C9.35221875,8.67604687 9.09754687,8.79539063 8.90217187,8.996625 C8.89945312,8.99939063 8.89678125,9.00215625 8.89401562,9.004875 L6.88523437,11.0226562 C6.70242187,11.2062656 6.46228125,11.2982344 6.22214062,11.2982344 C5.98335937,11.2982344 5.74457812,11.2074375 5.56204687,11.0256563 C5.1958125,10.6610625 5.1945,10.0686563 5.55909375,9.70242188 L7.56421875,7.68825 C8.11120312,7.12739063 8.84310937,6.80704688 9.57604687,6.80704688 C9.58289062,6.80704688 9.58973437,6.80704688 9.596625,6.80709375 C10.3047656,6.81295313 11.01975,7.12514063 11.55825,7.66364063 L12.6583125,8.76370312 C12.8377969,8.9431875 13.0725469,9.04851562 13.3022812,9.05282813 C13.3073437,9.05292188 13.3124531,9.05296875 13.3174219,9.05296875 C13.5559687,9.05296875 13.7971875,8.94810937 13.9815,8.76375 L20.8520625,1.8946875 L18.3859687,1.8946875 C17.8692187,1.8946875 17.4502969,1.47576563 17.4502969,0.959015625 C17.4502969,0.442265625 17.8692187,0.02334375 18.3859687,0.02334375 L21.1929844,0.02334375 C22.74075,0.02334375 23.9999531,1.28259375 23.9999531,2.83035938 Z M2.12484375,13.2665625 L0.26409375,15.1846875 C-0.095671875,15.5556094 -0.08671875,16.1479688 0.284203125,16.5077813 C0.465984375,16.6841719 0.700875,16.771875 0.935625,16.771875 C1.17984375,16.771875 1.423875,16.6768125 1.60729688,16.4877188 L3.46804688,14.5695938 C3.8278125,14.1986719 3.81885938,13.6063125 3.4479375,13.2465 C3.07701563,12.8866406 2.48465625,12.8956406 2.12484375,13.2665625 Z M6.45614063,13.87125 L6.45614063,13.87125 C5.9394375,13.87125 5.52046875,14.2901719 5.52046875,14.8069219 L5.52046875,23.0408906 C5.52046875,23.5575938 5.93939063,23.9765625 6.45614063,23.9765625 L6.4561875,23.9765625 C6.97289063,23.9765625 7.39185938,23.5576406 7.39185938,23.0408906 L7.39176562,14.806875 C7.39176563,14.2901719 6.97289063,13.87125 6.45614063,13.87125 Z M10.1052656,11.8128281 C9.5885625,11.8128281 9.16959375,12.23175 9.16959375,12.7485 L9.16959375,23.0408906 C9.16959375,23.5575938 9.58851563,23.9765625 10.1052656,23.9765625 C10.6220156,23.9765625 11.0409375,23.5576406 11.0409375,23.0408906 L11.0409375,12.7484531 C11.0408906,12.23175 10.6220156,11.8128281 10.1052656,11.8128281 Z M2.763375,18.0818438 C2.24540625,18.0800625 1.82451563,18.4995 1.82451563,19.0175156 L1.82451563,23.0408906 C1.82451563,23.5575938 2.2434375,23.9765625 2.7601875,23.9765625 L2.76023438,23.9765625 C3.2769375,23.9765625 3.69590625,23.5576406 3.69590625,23.0408906 L3.69590625,19.0175156 C3.69585937,18.5019844 3.27895312,18.0835781 2.763375,18.0818438 Z M17.4468281,11.204625 C16.9313906,11.2065 16.5145781,11.6248594 16.5145781,12.1402969 L16.5145781,23.0409375 C16.5145781,23.5576406 16.9335,23.9766094 17.45025,23.9766094 L17.4502969,23.9766094 C17.967,23.9766094 18.3859687,23.5576875 18.3859687,23.0409375 L18.3859687,12.1402969 C18.3859219,11.6221875 17.9649375,11.2027031 17.4468281,11.204625 Z M21.1461562,8.02335938 C20.6294062,8.02335938 20.2104844,8.44228125 20.2104844,8.95903125 L20.2104844,23.0409375 C20.2104844,23.5576406 20.6294062,23.9766094 21.1461562,23.9766094 L21.1462031,23.9766094 C21.6629062,23.9766094 22.081875,23.5576875 22.081875,23.0409375 L22.081875,8.95903125 C22.0818281,8.44223438 21.6629531,8.02335938 21.1461562,8.02335938 Z M13.7543438,12.9824063 C13.2375938,12.9824063 12.8186719,13.4013281 12.8186719,13.9180781 L12.8186719,23.0408906 C12.8186719,23.5575938 13.2375938,23.9765625 13.7543438,23.9765625 L13.7543906,23.9765625 C14.2710938,23.9765625 14.6900625,23.5576406 14.6900625,23.0408906 L14.6900625,13.9180781 C14.6900156,13.4013281 14.2711406,12.9824063 13.7543438,12.9824063 Z" id="Shape"></path>
        </g>
    </g>
</svg>