<?xml version="1.0" encoding="UTF-8"?>
<svg width="24px" height="24px" viewBox="0 0 24 24" version="1.1" xmlns="http://www.w3.org/2000/svg" xmlns:xlink="http://www.w3.org/1999/xlink">
    <!-- Generator: Sketch 53 (72520) - https://sketchapp.com -->
    <title>icon-strategy</title>
    <desc>Created with Sketch.</desc>
    <defs>
        <linearGradient x1="0%" y1="50%" x2="100%" y2="50%" id="linearGradient-1">
            <stop stop-color="#00F2FE" offset="0%"></stop>
            <stop stop-color="#03EFFE" offset="2.1%"></stop>
            <stop stop-color="#24D2FE" offset="29.3%"></stop>
            <stop stop-color="#3CBDFE" offset="55.4%"></stop>
            <stop stop-color="#4AB0FE" offset="79.6%"></stop>
            <stop stop-color="#4FACFE" offset="100%"></stop>
        </linearGradient>
    </defs>
    <g id="icon-strategy" stroke="none" stroke-width="1" fill="none" fill-rule="evenodd">
        <g id="Strategy" fill="url(#linearGradient-1)" fill-rule="nonzero">
            <path d="M12.9375,9.78173437 L22.398,0.2761875 C22.76325,-0.090796875 23.356875,-0.092203125 23.7238125,0.273046875 C24.0907969,0.638296875 24.0922031,1.231875 23.7269531,1.59885938 L14.3081719,11.0625 L15.984375,11.0625 C16.5021562,11.0625 16.921875,11.4822188 16.921875,12 C16.921875,12.5177813 16.5021562,12.9375 15.984375,12.9375 L13.875,12.9375 C12.3241875,12.9375 11.0625,11.6758125 11.0625,10.125 L11.0625,8.015625 C11.0625,7.49784375 11.4822188,7.078125 12,7.078125 C12.5177813,7.078125 12.9375,7.49784375 12.9375,8.015625 L12.9375,9.78173437 Z M22.8721406,6.9148125 C23.6205469,8.51226562 24,10.2232031 24,12 C24,14.3685937 23.2969219,16.6722187 21.9668437,18.6616875 C21.7860937,18.9320625 21.4891406,19.0782188 21.1866094,19.0782188 C21.0075,19.0782188 20.8265156,19.0269844 20.6664375,18.9199688 C20.2359844,18.6322031 20.1203438,18.0499688 20.4081094,17.6195625 C21.3546094,16.2038906 21.9249844,14.6012813 22.0810781,12.9375 L20.2435781,12.9375 C19.8111562,16.76475 16.7647969,19.8111562 12.9375,20.2435781 L12.9375,22.0814063 C14.4592031,21.9407344 15.93,21.4590469 17.2376719,20.6668594 C17.6804531,20.3985469 18.2569687,20.5401094 18.5252344,20.9829844 C18.7935,21.4258125 18.6519844,22.0022812 18.2091094,22.2705937 C16.3414688,23.4019688 14.1943594,24 12,24 C8.7946875,24 5.78123438,22.7517656 3.5146875,20.4853125 C1.2481875,18.2187656 0,15.2053125 0,12 C0,8.7946875 1.2481875,5.78123438 3.5146875,3.5146875 C5.78123438,1.24823438 8.7946875,0 12,0 C13.8160781,0 15.5612344,0.395671875 17.1869531,1.17609375 C17.6537344,1.40015625 17.8504687,1.96021875 17.6264062,2.427 C17.4023438,2.89373437 16.8422812,3.09046875 16.3755469,2.86645312 C15.2869219,2.34384375 14.1339375,2.02673438 12.9375,1.91803125 L12.9375,3.75675 C13.3710469,3.80559375 13.7996719,3.88729688 14.2189688,4.00340625 C14.7179531,4.14159375 15.0104531,4.65810938 14.8722656,5.15709375 C14.734125,5.656125 14.2176563,5.94876563 13.7185781,5.81039063 C13.1620313,5.65626562 12.5838281,5.578125 12,5.578125 C8.77739063,5.578125 6.10190625,7.96429688 5.64675,11.0625 L8.484375,11.0625 C9.00215625,11.0625 9.421875,11.4822188 9.421875,12 C9.421875,12.5177812 9.00215625,12.9375 8.484375,12.9375 L5.64675,12.9375 C6.05695312,15.7296094 8.27039063,17.9430469 11.0625,18.35325 L11.0625,15.515625 C11.0625,14.9978438 11.4822188,14.578125 12,14.578125 C12.5177812,14.578125 12.9375,14.9978438 12.9375,15.515625 L12.9375,18.35325 C16.0357031,17.8980938 18.421875,15.2226094 18.421875,12 C18.421875,11.4735938 18.3581719,10.9503281 18.2325469,10.444875 C18.107625,9.942375 18.4137188,9.43382813 18.9162187,9.30895313 C19.418625,9.18426563 19.9272656,9.490125 20.0521875,9.992625 C20.1394687,10.3438125 20.2028437,10.7014688 20.2434844,11.0625 L22.0818281,11.0625 C21.9759375,9.89798438 21.6725156,8.773875 21.1742344,7.7101875 C20.9545781,7.24134375 21.1566094,6.68320313 21.6254531,6.4635 C22.0943906,6.24384375 22.6524844,6.44596875 22.8721406,6.9148125 Z M1.91878125,11.0625 L3.756375,11.0625 C4.18884375,7.23525 7.23520312,4.18884375 11.0625,3.75642188 L11.0625,1.91878125 C6.22626562,2.36498438 2.36498438,6.22626562 1.91878125,11.0625 Z M11.0625,22.0812187 L11.0625,20.243625 C7.23520312,19.8111562 4.18884375,16.76475 3.75642188,12.9375 L1.91878125,12.9375 C2.36498438,17.7737344 6.22626562,21.6350156 11.0625,22.0812187 Z" id="Shape"></path>
        </g>
    </g>
</svg>