<?xml version="1.0" encoding="UTF-8"?>
<svg width="24px" height="24px" viewBox="0 0 24 24" version="1.1" xmlns="http://www.w3.org/2000/svg" xmlns:xlink="http://www.w3.org/1999/xlink">
    <!-- Generator: Sketch 53 (72520) - https://sketchapp.com -->
    <title>icon-planning</title>
    <desc>Created with Sketch.</desc>
    <defs>
        <linearGradient x1="0%" y1="50%" x2="100%" y2="50%" id="linearGradient-1">
            <stop stop-color="#00F2FE" offset="0%"></stop>
            <stop stop-color="#03EFFE" offset="2.08%"></stop>
            <stop stop-color="#24D2FE" offset="29.31%"></stop>
            <stop stop-color="#3CBDFE" offset="55.38%"></stop>
            <stop stop-color="#4AB0FE" offset="79.56%"></stop>
            <stop stop-color="#4FACFE" offset="100%"></stop>
        </linearGradient>
    </defs>
    <g id="icon-planning" stroke="none" stroke-width="1" fill="none" fill-rule="evenodd">
        <g id="Planning" fill="url(#linearGradient-1)" fill-rule="nonzero">
            <path d="M22.3833618,11.7575684 C21.5474854,11.3395386 20.4569092,11.109375 19.3125,11.109375 C18.1680908,11.109375 17.0775146,11.3395386 16.2416382,11.7575684 C15.1990357,12.2786865 14.625,13.0473633 14.625,13.921875 C14.625,13.949707 14.6255493,13.977356 14.6266479,14.0050049 C14.6255493,14.0240479 14.625,14.0430908 14.625,14.0625 L14.625,15.2208252 C13.8233643,14.8659668 12.8377075,14.671875 11.8125,14.671875 C10.6680908,14.671875 9.57751462,14.9020386 8.74163817,15.3200684 C7.69903566,15.8411865 7.125,16.6098633 7.125,17.484375 C7.125,17.4955444 7.12554933,17.5065307 7.12573242,17.5177002 C7.12554933,17.5222778 7.125,17.5266724 7.125,17.53125 L7.125,21.1875 C7.125,22.0620117 7.69903566,22.8306885 8.74163817,23.3518066 C9.57751462,23.7698364 10.6680908,24 11.8125,24 C12.9569092,24 14.0474854,23.7698364 14.8833618,23.3518066 C15.1384277,23.2243652 15.3651123,23.0819092 15.5625,22.927002 C15.7598877,23.0819092 15.9865723,23.2243652 16.2416382,23.3518066 C17.0775146,23.7698364 18.1680908,24 19.3125,24 C20.4569092,24 21.5474854,23.7698364 22.3833618,23.3518066 C23.4259643,22.8306885 24,22.0620117 24,21.1875 L24,13.921875 C24,13.0473633 23.4259643,12.2786865 22.3833618,11.7575684 Z M14.0449219,21.6747436 C13.4727173,21.9609375 12.6589966,22.125 11.8125,22.125 C10.9660034,22.125 10.1522827,21.9609375 9.58007812,21.6747436 C9.10089113,21.4352417 9,21.2199097 9,21.1875 L9,19.7677002 C9.79650881,20.1097412 10.7823487,20.296875 11.8125,20.296875 C11.8474732,20.296875 11.8824463,20.2966919 11.9172363,20.2963257 C12.4350586,20.2901001 12.8497925,19.8656616 12.84375,19.3478393 C12.8377075,18.8302002 12.4119873,18.4158325 11.8952637,18.4213257 C11.8677979,18.4216919 11.8401489,18.421875 11.8125,18.421875 C10.9660034,18.421875 10.1524658,18.2578125 9.58026122,17.9716186 C9.10089113,17.7321167 9,17.5167847 9,17.484375 C9,17.4519653 9.10089113,17.2366333 9.58007812,16.9971314 C10.1522827,16.7109375 10.9660034,16.546875 11.8125,16.546875 C12.6491089,16.546875 13.4586182,16.7173462 14.0333862,17.0147095 C14.4847412,17.248169 14.625,17.4750366 14.625,17.53125 L14.625,21.1875 C14.625,21.2199097 14.5241089,21.4352417 14.0449219,21.6747436 Z M22.125,21.1875 C22.125,21.2199097 22.0241089,21.4352417 21.5449219,21.6747436 C20.9727173,21.9609375 20.1589966,22.125 19.3125,22.125 C18.4660034,22.125 17.6522827,21.9609375 17.0800781,21.6747436 C16.6008911,21.4352417 16.5,21.2199097 16.5,21.1875 L16.5,19.7677002 C17.2965088,20.1097412 18.2823487,20.296875 19.3125,20.296875 C19.3478393,20.296875 19.3829956,20.2966919 19.4179688,20.2961426 C19.9356079,20.2897339 20.3501587,19.8647461 20.34375,19.3471069 C20.3371582,18.8292847 19.9141846,18.4143677 19.3945312,18.4213257 C19.3672485,18.4216919 19.3399658,18.421875 19.3125,18.421875 C18.4660034,18.421875 17.6522827,18.2578125 17.0800781,17.9716186 C16.6008911,17.7321167 16.5,17.5167847 16.5,17.484375 L16.5,16.2061157 C17.2963257,16.5479737 18.2827148,16.734375 19.3125,16.734375 C19.3478393,16.734375 19.3829956,16.7341919 19.4179688,16.7336426 C19.9356079,16.7272339 20.3501587,16.3022461 20.34375,15.7846069 C20.3373413,15.270813 19.9187622,14.8588257 19.4066162,14.8588257 C19.4025879,14.8588257 19.3985596,14.8588257 19.3945312,14.8588257 C19.3672485,14.8591919 19.3399658,14.859375 19.3125,14.859375 C18.4660034,14.859375 17.6524658,14.6953125 17.0802612,14.4091186 C16.6008911,14.1696167 16.5,13.9542847 16.5,13.921875 C16.5,13.8894653 16.6008911,13.6741333 17.0800781,13.4346314 C17.6522827,13.1484375 18.4660034,12.984375 19.3125,12.984375 C20.1589966,12.984375 20.9727173,13.1484375 21.5449219,13.4346314 C22.0241089,13.6741333 22.125,13.8894653 22.125,13.921875 L22.125,21.1875 Z M24,3.75 L24,9 C24,9.51782227 23.5803223,9.9375 23.0625,9.9375 C22.5446777,9.9375 22.125,9.51782227 22.125,9 L22.125,3.75 C22.125,2.7161865 21.2838135,1.875 20.25,1.875 L3.75,1.875 C2.7161865,1.875 1.875,2.7161865 1.875,3.75 L1.875,13.40625 C1.875,14.4400635 2.7161865,15.28125 3.75,15.28125 L4.453125,15.28125 C4.97094727,15.28125 5.390625,15.7009277 5.390625,16.21875 C5.390625,16.7365723 4.97094727,17.15625 4.453125,17.15625 L3.75,17.15625 C1.68218995,17.15625 0,15.47406 0,13.40625 L0,3.75 C0,1.68218995 1.68218995,0 3.75,0 L20.25,0 C22.31781,0 24,1.68218995 24,3.75 Z M14.6233521,8.68048097 C14.6244507,8.6445923 14.625,8.60852053 14.625,8.57244872 C14.625,6.9440918 13.4474487,5.61932372 12,5.61932372 C10.5525513,5.61932372 9.375,6.9440918 9.375,8.57244872 C9.375,9.67529297 9.916626,10.6790771 10.7883911,11.1919556 C11.2346191,11.4545288 11.3834839,12.0291138 11.1210937,12.4753418 C10.9464112,12.7723388 10.6334839,12.9376831 10.3121338,12.9376831 C10.1506348,12.9376831 9.9869385,12.895935 9.83770753,12.8080444 C8.39575195,11.9598999 7.5,10.336853 7.5,8.57244872 C7.5,5.91027834 9.51873778,3.74432372 12,3.74432372 C14.4812622,3.74432372 16.5,5.91027834 16.5,8.57244872 C16.5,8.62866211 16.4990845,8.68469241 16.4972534,8.74035647 C16.4923096,8.89654542 16.4802246,9.05383303 16.4613647,9.20782472 C16.3981934,9.72180178 15.930542,10.0872803 15.416748,10.024292 C14.902771,9.96112059 14.5372925,9.49346925 14.6002807,8.97949219 C14.6123657,8.88134766 14.6200561,8.78063963 14.6233521,8.68048097 L14.6233521,8.68048097 Z M4.546875,7.359375 C5.06469727,7.359375 5.484375,7.77905273 5.484375,8.296875 C5.484375,8.81469727 5.06469727,9.234375 4.546875,9.234375 C4.02905273,9.234375 3.609375,8.81469727 3.609375,8.296875 C3.609375,7.77905273 4.02905273,7.359375 4.546875,7.359375 Z M19.546875,9.234375 C19.0290527,9.234375 18.609375,8.81469727 18.609375,8.296875 C18.609375,7.77905273 19.0290527,7.359375 19.546875,7.359375 C20.0646973,7.359375 20.484375,7.77905273 20.484375,8.296875 C20.484375,8.81469727 20.0646973,9.234375 19.546875,9.234375 Z" id="Shape"></path>
        </g>
    </g>
</svg>