<?xml version="1.0" encoding="UTF-8"?>
<svg width="24px" height="24px" viewBox="0 0 24 24" version="1.1" xmlns="http://www.w3.org/2000/svg" xmlns:xlink="http://www.w3.org/1999/xlink">
    <!-- Generator: Sketch 53 (72520) - https://sketchapp.com -->
    <title>icon-dashboard</title>
    <desc>Created with Sketch.</desc>
    <defs>
        <linearGradient x1="0%" y1="50%" x2="100%" y2="50%" id="linearGradient-1">
            <stop stop-color="#00F2FE" offset="0%"></stop>
            <stop stop-color="#03EFFE" offset="2.1%"></stop>
            <stop stop-color="#24D2FE" offset="29.3%"></stop>
            <stop stop-color="#3CBDFE" offset="55.4%"></stop>
            <stop stop-color="#4AB0FE" offset="79.6%"></stop>
            <stop stop-color="#4FACFE" offset="100%"></stop>
        </linearGradient>
    </defs>
    <g id="icon-dashboard" stroke="none" stroke-width="1" fill="none" fill-rule="evenodd">
        <g id="icon/active/dashboard" fill="url(#linearGradient-1)" fill-rule="nonzero">
            <g id="Dashboard">
                <path d="M23.300354,5.67169191 C22.8361816,4.55108644 22.1661987,3.54821775 21.309082,2.69091797 C20.4519653,1.83380128 19.4489136,1.16381836 18.3283081,0.699645984 C17.2077026,0.235290516 16.0246582,0 14.8125,0 C14.2946777,0 13.875,0.419677734 13.875,0.9375 L13.875,6.44293214 L13.875,6.44311523 L13.875,8.25 C13.875,9.2838135 14.7161865,10.125 15.75,10.125 L23.0625,10.125 C23.5803223,10.125 24,9.70532227 24,9.1875 C24,7.9753418 23.7647095,6.79229738 23.300354,5.67169191 Z M17.5272217,2.40234375 L15.75,4.17956541 L15.75,1.93652344 C16.3601074,2.01672366 16.9577637,2.17437745 17.5272217,2.40234375 Z M15.75,6.83129883 L19.2236939,3.35760497 C19.4912109,3.55883789 19.7451782,3.77874755 19.9832153,4.01678466 C20.2243652,4.25793459 20.4470215,4.51574709 20.6508179,4.78710938 L17.1439819,8.25 L15.75,8.25 L15.75,6.83129883 Z M19.812561,8.25 L21.6018677,6.48303225 C21.8274536,7.04937745 21.9836426,7.64355469 22.0634766,8.25 L19.812561,8.25 Z M22.125,12.9375 C22.125,15.0292969 21.538147,17.0661621 20.4279785,18.8280029 C20.1518555,19.2659912 19.5730591,19.3972778 19.1348877,19.1213379 C18.6968994,18.8452148 18.5656128,18.2664185 18.8415527,17.8282471 C19.5963135,16.6307373 20.0595703,15.2796021 20.2023926,13.875 L12.9375,13.875 C11.3865967,13.875 10.125,12.6134033 10.125,11.0625 L10.125,3.79742433 C5.49755859,4.26837159 1.875,8.18774414 1.875,12.9375 C1.875,18.003479 5.99652098,22.125 11.0625,22.125 C12.7470703,22.125 14.3942871,21.6652222 15.8256225,20.7956543 C16.2681885,20.5268555 16.8447876,20.6674805 17.1137695,21.1100464 C17.3825684,21.5524292 17.2417603,22.1292114 16.7993775,22.3980103 C15.0743408,23.446106 13.0905762,24 11.0625,24 C8.09967042,24 5.31939698,22.8515625 3.23400881,20.7659912 C1.1484375,18.680603 1.42108547e-13,15.9003296 1.42108547e-13,12.9375 C1.42108547e-13,9.98254397 1.15063477,7.20446775 3.24005128,5.11505128 C5.32946775,3.02563477 8.10754397,1.875 11.0625,1.875 C11.5803223,1.875 12,2.29467773 12,2.8125 L12,11.0625 C12,11.5794068 12.4205933,12 12.9375,12 L21.1875,12 C21.7053223,12 22.125,12.4196777 22.125,12.9375 Z" id="Shape"></path>
            </g>
        </g>
    </g>
</svg>