<?xml version="1.0" encoding="UTF-8"?>
<svg width="24px" height="24px" viewBox="0 0 24 24" version="1.1" xmlns="http://www.w3.org/2000/svg" xmlns:xlink="http://www.w3.org/1999/xlink">
    <!-- Generator: Sketch 53 (72520) - https://sketchapp.com -->
    <title>icon-user</title>
    <desc>Created with Sketch.</desc>
    <defs>
        <linearGradient x1="0%" y1="50%" x2="100%" y2="50%" id="linearGradient-1">
            <stop stop-color="#00F2FE" offset="0%"></stop>
            <stop stop-color="#03EFFE" offset="2.1%"></stop>
            <stop stop-color="#24D2FE" offset="29.3%"></stop>
            <stop stop-color="#3CBDFE" offset="55.4%"></stop>
            <stop stop-color="#4AB0FE" offset="79.6%"></stop>
            <stop stop-color="#4FACFE" offset="100%"></stop>
        </linearGradient>
    </defs>
    <g id="icon-user" stroke="none" stroke-width="1" fill="none" fill-rule="evenodd">
        <g id="User" fill="url(#linearGradient-1)" fill-rule="nonzero">
            <path d="M12.9518437,12.7860469 C16.0318594,13.0697344 18.8335781,14.7205313 20.5785469,17.3229844 C20.8668281,17.7530156 21.4492969,17.8679531 21.8792812,17.5795781 C22.3093594,17.2912031 22.4242031,16.7088281 22.135875,16.2787969 C20.5975312,13.9844531 18.3636094,12.3164531 15.8165625,11.4782344 C17.3688281,10.314375 18.375,8.46 18.375,6.375 C18.375,2.85979687 15.5151562,0 12,0 C8.48484375,0 5.625,2.85979687 5.625,6.375 C5.625,8.46135938 6.6324375,10.3168125 8.18639062,11.4804844 C6.76275,11.9491406 5.4268125,12.678 4.25765625,13.6396406 C2.11396875,15.4029375 0.623484375,17.8624687 0.06084375,20.5650937 C-0.1155,21.4119844 0.095765625,22.28175 0.640359375,22.9514531 C1.18223437,23.6178281 1.9858125,24 2.84498437,24 L6.9375,24 C7.45528125,24 7.875,23.5802812 7.875,23.0625 C7.875,22.5447188 7.45528125,22.125 6.9375,22.125 L2.84489063,22.125 C2.44467188,22.125 2.20326562,21.9016406 2.0949375,21.7684688 C1.90795313,21.5385 1.83557812,21.23925 1.896375,20.9472656 C2.814375,16.5378281 6.5360625,13.2502969 10.9520156,12.7964063 L9.16228125,20.9390156 C9.09370313,21.2513438 9.18895312,21.5770781 9.41503125,21.8031563 L11.290125,23.6784844 C11.4659062,23.8543594 11.7044063,23.953125 11.953125,23.953125 C12.2017969,23.953125 12.44025,23.8543125 12.6160781,23.6784844 L14.4909844,21.8031563 C14.7170625,21.5770313 14.8123125,21.2513438 14.7436875,20.9390625 L12.9518437,12.7860469 Z M7.5,6.375 C7.5,3.89367187 9.51867187,1.875 12,1.875 C14.4813281,1.875 16.5,3.89367187 16.5,6.375 C16.5,8.78142187 14.6013281,10.7526094 12.2233594,10.8694688 C12.1490156,10.8681094 12.0745781,10.8672187 12,10.8672187 C11.9268281,10.8672187 11.85375,10.8682969 11.7806719,10.8696094 C9.40082813,10.7548125 7.5,8.78278125 7.5,6.375 Z M11.9530781,21.6896719 L11.1038438,20.8402969 L11.9530781,16.976625 L12.8022187,20.8403437 L11.9530781,21.6896719 Z M23.9391563,20.5650938 C24.1155,21.4119844 23.9042344,22.28175 23.3596406,22.9514531 C22.8177188,23.6178281 22.0141875,24 21.1550156,24 L16.921875,24 C16.4040938,24 15.984375,23.5802813 15.984375,23.0625 C15.984375,22.5447188 16.4040938,22.125 16.921875,22.125 L21.1550156,22.125 C21.5552344,22.125 21.7966406,21.9015938 21.9049688,21.7684688 C22.0919531,21.5385469 22.1643281,21.23925 22.1035313,20.9473125 C21.9979688,20.4404063 22.3233281,19.9439531 22.8302813,19.8383906 C23.3370938,19.7329219 23.8336406,20.0582344 23.9391563,20.5650938 Z" id="Shape"></path>
        </g>
    </g>
</svg>