<?xml version="1.0" encoding="UTF-8"?>
<svg width="24px" height="24px" viewBox="0 0 24 24" version="1.1" xmlns="http://www.w3.org/2000/svg" xmlns:xlink="http://www.w3.org/1999/xlink">
    <!-- Generator: Sketch 53 (72520) - https://sketchapp.com -->
    <title>icon/apps</title>
    <desc>Created with Sketch.</desc>
    <g id="Symbols" stroke="none" stroke-width="1" fill="none" fill-rule="evenodd">
        <g id="Menu" transform="translate(-18.000000, -18.000000)" fill="#B0BAC9" fill-rule="nonzero">
            <path d="M38.25,29.0625 L34.6875,29.0625 C32.61975,29.0625 30.9375,27.38025 30.9375,25.3125 L30.9375,21.75 C30.9375,19.68225 32.61975,18 34.6875,18 L38.25,18 C40.31775,18 42,19.68225 42,21.75 L42,25.3125 C42,27.38025 40.31775,29.0625 38.25,29.0625 Z M34.6875,19.875 C33.653625,19.875 32.8125,20.716125 32.8125,21.75 L32.8125,25.3125 C32.8125,26.346375 33.653625,27.1875 34.6875,27.1875 L38.25,27.1875 C39.283875,27.1875 40.125,26.346375 40.125,25.3125 L40.125,21.75 C40.125,20.716125 39.283875,19.875 38.25,19.875 L34.6875,19.875 Z M25.3125,29.0625 L21.75,29.0625 C19.68225,29.0625 18,27.38025 18,25.3125 L18,21.75 C18,19.68225 19.68225,18 21.75,18 L25.3125,18 C27.38025,18 29.0625,19.68225 29.0625,21.75 L29.0625,25.3125 C29.0625,27.38025 27.38025,29.0625 25.3125,29.0625 Z M21.75,19.875 C20.716125,19.875 19.875,20.716125 19.875,21.75 L19.875,25.3125 C19.875,26.346375 20.716125,27.1875 21.75,27.1875 L25.3125,27.1875 C26.346375,27.1875 27.1875,26.346375 27.1875,25.3125 L27.1875,21.75 C27.1875,20.716125 26.346375,19.875 25.3125,19.875 L21.75,19.875 Z M25.3125,42 L21.75,42 C19.68225,42 18,40.31775 18,38.25 L18,34.6875 C18,32.61975 19.68225,30.9375 21.75,30.9375 L25.3125,30.9375 C27.38025,30.9375 29.0625,32.61975 29.0625,34.6875 L29.0625,38.25 C29.0625,40.31775 27.38025,42 25.3125,42 Z M21.75,32.8125 C20.716125,32.8125 19.875,33.653625 19.875,34.6875 L19.875,38.25 C19.875,39.283875 20.716125,40.125 21.75,40.125 L25.3125,40.125 C26.346375,40.125 27.1875,39.283875 27.1875,38.25 L27.1875,34.6875 C27.1875,33.653625 26.346375,32.8125 25.3125,32.8125 L21.75,32.8125 Z M42,38.25 C42,37.7322188 41.5802812,37.3125 41.0625,37.3125 C40.5447188,37.3125 40.125,37.7322188 40.125,38.25 C40.125,39.283875 39.283875,40.125 38.25,40.125 L34.6875,40.125 C33.653625,40.125 32.8125,39.283875 32.8125,38.25 L32.8125,34.6875 C32.8125,33.653625 33.653625,32.8125 34.6875,32.8125 L38.25,32.8125 C38.9955469,32.8125 39.6703594,33.2540156 39.9691406,33.9373125 C40.1765625,34.4116875 40.7293594,34.6280156 41.2037344,34.4206875 C41.6781563,34.2132187 41.8945312,33.6604687 41.6871094,33.1860937 C41.0897813,31.8201094 39.740625,30.9375 38.25,30.9375 L34.6875,30.9375 C32.61975,30.9375 30.9375,32.61975 30.9375,34.6875 L30.9375,38.25 C30.9375,40.31775 32.61975,42 34.6875,42 L38.25,42 C40.31775,42 42,40.31775 42,38.25 Z" id="icon/apps"></path>
        </g>
    </g>
</svg>