<?xml version="1.0" encoding="UTF-8"?>
<svg width="15px" height="24px" viewBox="0 0 15 24" version="1.1" xmlns="http://www.w3.org/2000/svg" xmlns:xlink="http://www.w3.org/1999/xlink">
    <!-- Generator: Sketch 53 (72520) - https://sketchapp.com -->
    <title>icon/help</title>
    <desc>Created with Sketch.</desc>
    <g id="Symbols" stroke="none" stroke-width="1" fill="none" fill-rule="evenodd">
        <g id="Help" transform="translate(-23.000000, -18.000000)" fill="#B0BAC9" fill-rule="nonzero">
            <g id="icon/help" transform="translate(23.000000, 18.000000)">
                <path d="M8.296875,23.0625 L8.296875,23.0625 C8.296875,23.5802812 7.87715625,24 7.359375,24 L7.359375,24 C6.84159375,24 6.421875,23.5802812 6.421875,23.0625 L6.421875,23.0625 C6.421875,22.5447188 6.84159375,22.125 7.359375,22.125 L7.359375,22.125 C7.87715625,22.125 8.296875,22.5447188 8.296875,23.0625 Z M8.296875,19.3125 L8.296875,17.1357187 C8.296875,15.8177344 9.06253125,14.63925 10.2475313,14.1333281 C12.9652969,12.9729844 14.7209531,10.314 14.72025,7.35914063 C14.72025,7.33992188 14.7196406,7.32089063 14.7185156,7.30195313 C14.6876719,3.27023438 11.3982656,0 7.359375,0 C3.30140625,0 5.5067062e-13,3.30140625 5.5067062e-13,7.359375 C5.5067062e-13,7.87715625 0.41971875,8.296875 0.9375,8.296875 C1.45528125,8.296875 1.875,7.87715625 1.875,7.359375 C1.875,4.33528125 4.33528125,1.875 7.359375,1.875 C10.3834688,1.875 12.84375,4.33528125 12.84375,7.359375 C12.84375,7.3760625 12.8441719,7.39265625 12.8450625,7.40915625 C12.8260781,9.59175 11.5219219,11.5504688 9.5113125,12.4088906 C7.63453125,13.2101719 6.421875,15.0655313 6.421875,17.1357187 L6.421875,19.3125 C6.421875,19.8302812 6.84159375,20.25 7.359375,20.25 C7.87715625,20.25 8.296875,19.8302812 8.296875,19.3125 Z"></path>
            </g>
        </g>
    </g>
</svg>