<?xml version="1.0" encoding="UTF-8"?>
<svg width="23px" height="24px" viewBox="0 0 23 24" version="1.1" xmlns="http://www.w3.org/2000/svg" xmlns:xlink="http://www.w3.org/1999/xlink">
    <!-- Generator: Sketch 53 (72520) - https://sketchapp.com -->
    <title>icon/notification</title>
    <desc>Created with Sketch.</desc>
    <g id="Symbols" stroke="none" stroke-width="1" fill="none" fill-rule="evenodd">
        <g id="Notification" transform="translate(-19.000000, -18.000000)" fill="#B0BAC9" fill-rule="nonzero">
            <g id="icon/notification" transform="translate(19.000000, 18.000000)">
                <path d="M19.8571406,17.106375 C19.3482656,17.2017656 19.0129688,17.6916094 19.1083125,18.2004844 C19.1790938,18.5780625 19.0131094,18.847125 18.9079219,18.9739219 C18.8029688,19.1003438 18.5697188,19.3125 18.1869844,19.3125 L3.95610938,19.3125 C3.573375,19.3125 3.340125,19.1003906 3.23517188,18.9739219 C3.12998438,18.847125 2.964,18.5780625 3.03478125,18.2004844 C3.30070313,16.7814844 3.83428125,15.8481562 4.35028125,14.9455312 C4.977,13.8494531 5.625,12.7159688 5.625,10.96875 L5.625,9.5625 C5.625,6.60623437 8.02795313,4.1685 10.9829063,4.12560937 L11.1601406,4.12560937 C14.1050625,4.16835937 16.5,6.60609375 16.5,9.5625 L16.5,10.96875 C16.5,12.4557656 16.9864219,13.479 17.442375,14.3213906 C17.6120625,14.6348906 17.9345625,14.8128281 18.2676563,14.8128281 C18.4183594,14.8128281 18.5712656,14.7764063 18.7130625,14.699625 C19.1684531,14.4532031 19.3377656,13.8842344 19.0912969,13.4289375 C18.6376875,12.5907187 18.375,11.9194219 18.375,10.96875 L18.375,9.5625 C18.375,7.63307812 17.6276719,5.81076563 16.2705938,4.43128125 C15.107625,3.249 13.6143281,2.51128125 12,2.30765625 L12,0.9375 C12,0.41971875 11.5802813,0 11.0625,0 C10.5447188,0 10.125,0.41971875 10.125,0.9375 L10.125,2.31042188 C6.54103125,2.77542188 3.75,5.86785938 3.75,9.5625 L3.75,10.96875 C3.75,12.2178281 3.29657813,13.0109063 2.72254688,14.0149687 C2.15704688,15.0042187 1.51603125,16.1254219 1.19184375,17.8551563 C1.03710938,18.6809062 1.25601563,19.525125 1.79245313,20.1714375 C2.32842188,20.8171875 3.11704688,21.1875 3.95610938,21.1875 L8.26809375,21.1875 C8.26809375,22.7383125 9.52978125,24 11.0805938,24 C12.6314063,24 13.8930938,22.7383125 13.8930938,21.1875 L18.1869844,21.1875 C19.0260469,21.1875 19.8147188,20.8171875 20.3506406,20.1714375 C20.8870781,19.525125 21.1059844,18.6809062 20.95125,17.8551563 C20.8559531,17.3462344 20.3661094,17.0109844 19.8571406,17.106375 Z M11.0806406,22.125 C10.5637031,22.125 10.1431406,21.7044375 10.1431406,21.1875 L12.0181406,21.1875 C12.0181406,21.7044375 11.5975781,22.125 11.0806406,22.125 Z M0.9375,10.5002813 C0.41971875,10.5002813 0,10.0805625 0,9.56278125 C0,6.83671875 1.000875,4.21734375 2.81821875,2.1871875 C3.16354688,1.80145312 3.75623438,1.76864062 4.14201563,2.11396875 C4.52775,2.45929687 4.5605625,3.05198437 4.21523438,3.43776562 C2.70609375,5.123625 1.875,7.2988125 1.875,9.56278125 C1.875,10.0805625 1.45528125,10.5002813 0.9375,10.5002813 Z M22.125,9.56278125 C22.125,10.0805625 21.7052812,10.5002812 21.1875,10.5002812 C20.6697188,10.5002812 20.25,10.0805625 20.25,9.56278125 C20.25,7.2988125 19.4189062,5.12357812 17.9097656,3.43776562 C17.5644375,3.05198437 17.5972031,2.45929688 17.9829844,2.11396875 C18.3687656,1.76864062 18.9614531,1.80140625 19.3067813,2.1871875 C21.124125,4.21734375 22.125,6.83671875 22.125,9.56278125 Z"></path>
            </g>
        </g>
    </g>
</svg>