<?xml version="1.0" encoding="UTF-8"?>
<svg width="24px" height="24px" viewBox="0 0 24 24" version="1.1" xmlns="http://www.w3.org/2000/svg" xmlns:xlink="http://www.w3.org/1999/xlink">
    <!-- Generator: Sketch 53 (72520) - https://sketchapp.com -->
    <title>icon-configure #1</title>
    <desc>Created with Sketch.</desc>
    <g id="icon-configure-#1" stroke="none" stroke-width="1" fill="none" fill-rule="evenodd">
        <path d="M21.1875,8.71879688 L20.7154219,8.71879688 C20.5912031,8.71879688 20.4786094,8.6405625 20.4298594,8.52253125 L20.4215156,8.50228125 C20.3710313,8.3806875 20.3951719,8.24535937 20.4829687,8.15751563 L20.8168594,7.82367188 C21.9134531,6.72707813 21.9134531,4.94278125 20.8168594,3.8461875 L20.1539531,3.18328125 C19.6227188,2.65204687 18.9164063,2.3595 18.1651875,2.3595 C17.413875,2.3595 16.7076094,2.65204687 16.1764219,3.18328125 L15.842625,3.51707812 C15.7547344,3.60496875 15.6192656,3.6290625 15.4982344,3.57876562 L15.4805625,3.57145312 C15.3594844,3.5214375 15.2812969,3.40889062 15.2812969,3.28471875 L15.2812969,2.8125 C15.2812969,1.2616875 14.0196094,0 12.4687969,0 L11.5312969,0 C9.98048438,0 8.71879688,1.2616875 8.71879688,2.8125 L8.71879688,3.28471875 C8.71879688,3.40889062 8.64060938,3.5214375 8.5205625,3.57098438 L8.50223438,3.57857812 C8.38078125,3.62910938 8.2453125,3.60496875 8.15751563,3.517125 L7.82367188,3.18328125 C7.29248438,2.65204688 6.58617188,2.3595 5.83490625,2.3595 C5.08364063,2.3595 4.377375,2.65204688 3.84614063,3.18328125 L3.18323438,3.84609375 C2.08664063,4.94273437 2.08664063,6.72698438 3.18328125,7.823625 L3.51707813,8.15742188 C3.60492188,8.2453125 3.62901563,8.38064062 3.577125,8.50570313 L3.57145313,8.51939062 C3.52148438,8.64046875 3.40884375,8.71870313 3.28467188,8.71870313 L2.8125,8.71870313 C1.2616875,8.71870313 0,9.98039063 0,11.5312031 L0,12.4687031 C0,14.0195156 1.2616875,15.2812031 2.8125,15.2812031 L3.284625,15.2812031 C3.40884375,15.2812031 3.52139063,15.3594375 3.5701875,15.4774688 L3.57853125,15.4977188 C3.62901563,15.6193125 3.604875,15.7546406 3.51703125,15.8424844 L3.18323438,16.1763281 C2.652,16.7075625 2.35945313,17.4138281 2.35945313,18.1650938 C2.35945313,18.9163125 2.652,19.6225781 3.1831875,20.1538125 L3.84609375,20.8167187 C4.37732813,21.3479531 5.08364062,21.6405 5.83485938,21.6405 C6.58617187,21.6405 7.2924375,21.3479531 7.823625,20.8167187 L8.15742188,20.4829219 C8.24521875,20.3950312 8.38073438,20.3709375 8.5018125,20.4212344 L8.51948438,20.4285469 C8.6405625,20.4785625 8.71875,20.5911094 8.71875,20.7152813 L8.71875,21.1875 C8.71875,22.7383125 9.9804375,24 11.53125,24 L12.46875,24 C14.0195625,24 15.28125,22.7383125 15.28125,21.1875 L15.28125,20.7152813 C15.28125,20.5911094 15.3594375,20.4785625 15.4794844,20.4290156 L15.4978125,20.4214219 C15.6193594,20.3709844 15.7547344,20.3950781 15.8425313,20.482875 L16.176375,20.8167187 C16.7075625,21.3479531 17.413875,21.6405 18.1651406,21.6405 C18.9164063,21.6405 19.6226719,21.3479531 20.1539063,20.8167187 L20.8168125,20.1538125 C21.348,19.622625 21.6405469,18.9163125 21.6405469,18.1650938 C21.6405469,17.4138281 21.348,16.7075625 20.8168125,16.176375 L20.4829688,15.8425313 C20.3950781,15.7546875 20.3709844,15.6193594 20.4214688,15.4977656 L20.4285469,15.4806094 C20.4785625,15.3595312 20.5911563,15.2812969 20.7153281,15.2812969 L21.1875,15.2812969 C22.7383125,15.2812969 24,14.0196094 24,12.4687969 L24,11.5312969 C24,9.98048437 22.7383125,8.71879688 21.1875,8.71879688 Z M22.125,12.46875 C22.125,12.9856875 21.7044375,13.40625 21.1875,13.40625 L20.7153281,13.40625 C19.8291563,13.40625 19.0363594,13.9395 18.6955313,14.7648281 L18.6894375,14.7795469 C18.3473438,15.6045 18.5308125,16.5420469 19.1570625,17.1683438 L19.4909531,17.5021875 C19.668,17.6792344 19.7655,17.9146875 19.7655,18.1650938 C19.7655,18.4155 19.668,18.6509063 19.4909063,18.828 L18.8280469,19.4909063 C18.6509063,19.6679531 18.4155,19.7655 18.1650938,19.7655 C17.9146406,19.7655 17.6792344,19.668 17.5021875,19.4909063 L17.1682969,19.1570156 C16.5416719,18.5305313 15.6035625,18.3472031 14.7780938,18.6900469 L14.764875,18.6955313 C13.9395469,19.0363125 13.40625,19.8291094 13.40625,20.7152813 L13.40625,21.1875 C13.40625,21.7044375 12.9856875,22.125 12.46875,22.125 L11.53125,22.125 C11.0143125,22.125 10.59375,21.7044375 10.59375,21.1875 L10.59375,20.7152813 C10.59375,19.8291094 10.0604531,19.0363125 9.23414062,18.6951094 L9.22148437,18.6898594 C8.94539062,18.5751562 8.65678125,18.5194219 8.3713125,18.5194219 C7.80360938,18.5194219 7.24860938,18.7401562 6.83165625,19.1570625 L6.4978125,19.4909531 C6.32071875,19.668 6.08535937,19.7655 5.83490625,19.7655 C5.5845,19.7655 5.34904688,19.6679531 5.172,19.4909062 L4.50909375,18.828 C4.332,18.6509062 4.2345,18.4155 4.2345,18.1650938 C4.2345,17.9146875 4.332,17.6792344 4.50909375,17.5021875 L4.8429375,17.1683437 C5.46923438,16.5420469 5.65270313,15.6045 5.3105625,14.7795469 L5.30446875,14.7648281 C4.96359375,13.9395 4.17079688,13.40625 3.28467187,13.40625 L2.8125,13.40625 C2.2955625,13.40625 1.875,12.9856875 1.875,12.46875 L1.875,11.53125 C1.875,11.0143125 2.2955625,10.59375 2.8125,10.59375 L3.28467188,10.59375 C4.17084375,10.59375 4.96364063,10.0605 5.30573438,9.23217188 L5.31009375,9.22153125 C5.65284375,8.39634375 5.46946875,7.45828125 4.84289063,6.83165625 L4.50909375,6.49785937 C4.14351563,6.13228125 4.14351563,5.53753125 4.50909375,5.172 L5.17195313,4.50909375 C5.34909375,4.33204687 5.5845,4.2345 5.83490625,4.2345 C6.08535938,4.2345 6.32076563,4.332 6.4978125,4.50909375 L6.83170313,4.84298438 C7.458375,5.46951562 8.39648438,5.65289062 9.22190625,5.30995312 L9.235125,5.30446875 C10.0604531,4.9636875 10.59375,4.17089063 10.59375,3.28471875 L10.59375,2.8125 C10.59375,2.2955625 11.0143125,1.875 11.53125,1.875 L12.46875,1.875 C12.9856875,1.875 13.40625,2.2955625 13.40625,2.8125 L13.40625,3.28471875 C13.40625,4.17089063 13.9395469,4.9636875 14.7658594,5.30484375 L14.7785156,5.31009375 C15.6035625,5.65275 16.5416719,5.46942187 17.1683437,4.84289062 L17.5021875,4.509 C17.6792813,4.33195312 17.9146406,4.23445312 18.1650938,4.23445312 C18.4155,4.23445312 18.6509531,4.332 18.828,4.50904687 L19.4909062,5.17195312 C19.8564844,5.53748437 19.8564844,6.13223437 19.4909531,6.49776562 L19.1570625,6.83165625 C18.5305312,7.45828125 18.3471562,8.39629687 18.6885,9.2180625 L18.6955312,9.23517187 C19.0364062,10.0605 19.8292031,10.59375 20.7153281,10.59375 L21.1875,10.59375 C21.7044375,10.59375 22.125,11.0143125 22.125,11.53125 L22.125,12.46875 Z M12,6.5625 C9.00173437,6.5625 6.5625,9.00178125 6.5625,12 C6.5625,14.9982187 9.00173437,17.4375 12,17.4375 C12.5600156,17.4375 13.1125781,17.3525156 13.6423125,17.1848437 C14.1359531,17.0286094 14.4094219,16.5017813 14.2531875,16.0081406 C14.097,15.5145 13.5700312,15.2409844 13.0764844,15.3972187 C12.7299844,15.5069063 12.3678281,15.5625 12,15.5625 C10.0356562,15.5625 8.4375,13.9643906 8.4375,12 C8.4375,10.0356094 10.0356562,8.4375 12,8.4375 C13.9643438,8.4375 15.5625,10.0356094 15.5625,12 C15.5625,12.3413906 15.5145,12.6787031 15.4197656,13.0024688 C15.2744063,13.4994375 15.5594531,14.0200781 16.0564219,14.1654375 C16.5534844,14.3107969 17.0740312,14.02575 17.2194375,13.5287813 C17.3641406,13.0339687 17.4375,12.5195625 17.4375,12 C17.4375,9.00178125 14.9982656,6.5625 12,6.5625 Z" id="Shape" fill="#BFC5D2" fill-rule="nonzero"></path>
    </g>
</svg>