<?xml version="1.0" encoding="UTF-8"?>
<svg width="24px" height="24px" viewBox="0 0 24 24" version="1.1" xmlns="http://www.w3.org/2000/svg" xmlns:xlink="http://www.w3.org/1999/xlink">
    <!-- Generator: Sketch 53 (72520) - https://sketchapp.com -->
    <title>icon-tenant #1</title>
    <desc>Created with Sketch.</desc>
    <g id="icon-tenant-#1" stroke="none" stroke-width="1" fill="none" fill-rule="evenodd">
        <path d="M24,23.0625 C24,23.5803223 23.5803223,24 23.0625,24 L13.875,24 C13.3571777,24 12.9375,23.5803223 12.9375,23.0625 L12.9375,5.578125 L12,5.578125 C11.4821777,5.578125 11.0625,5.15844727 11.0625,4.640625 L11.0625,3.703125 L5.4375,3.703125 L5.4375,4.640625 C5.4375,5.15844727 5.01782227,5.578125 4.5,5.578125 L3.5625,5.578125 L3.5625,23.0625 C3.5625,23.5803223 3.14282227,24 2.625,24 L0.9375,24 C0.419677734,24 0,23.5803223 0,23.0625 C0,22.5446777 0.419677734,22.125 0.9375,22.125 L1.6875,22.125 L1.6875,4.640625 C1.6875,4.12280273 2.10717773,3.703125 2.625,3.703125 L3.5625,3.703125 L3.5625,2.765625 C3.5625,2.24780273 3.98217773,1.828125 4.5,1.828125 L7.3125,1.828125 L7.3125,0.9375 C7.3125,0.419677734 7.73217773,0 8.25,0 C8.76782227,0 9.1875,0.419677734 9.1875,0.9375 L9.1875,1.828125 L12,1.828125 C12.5178223,1.828125 12.9375,2.24780273 12.9375,2.765625 L12.9375,3.703125 L13.875,3.703125 C13.8795776,3.703125 13.8839722,3.70367433 13.8885498,3.70385742 C14.0700073,3.69708253 14.2554932,3.74304197 14.4210205,3.84704588 L20.3695679,7.58825681 C21.5861206,8.35345458 22.3125,9.66833494 22.3125,11.1057129 L22.3125,14.625 C22.3125,15.1428223 21.8928223,15.5625 21.375,15.5625 C20.8571777,15.5625 20.4375,15.1428223 20.4375,14.625 L20.4375,11.1057129 C20.4375,10.3168945 20.0388794,9.59527589 19.3712768,9.17541506 L14.8125,6.30834961 L14.8125,22.125 L16.640625,22.125 L16.640625,20.625 C16.640625,20.1071777 17.0603027,19.6875 17.578125,19.6875 C18.0959473,19.6875 18.515625,20.1071777 18.515625,20.625 L18.515625,22.125 L20.4375,22.125 L20.4375,19.265625 C20.4375,18.7478027 20.8571777,18.328125 21.375,18.328125 C21.8928223,18.328125 22.3125,18.7478027 22.3125,19.265625 L22.3125,22.125 L23.0625,22.125 C23.5803223,22.125 24,22.5446777 24,23.0625 Z M6.328125,11.25 C5.81030273,11.25 5.390625,11.6696777 5.390625,12.1875 L5.390625,13.125 C5.390625,13.6428223 5.81030273,14.0625 6.328125,14.0625 C6.84594727,14.0625 7.265625,13.6428223 7.265625,13.125 L7.265625,12.1875 C7.265625,11.6696777 6.84594727,11.25 6.328125,11.25 Z M10.078125,11.25 C9.56030273,11.25 9.140625,11.6696777 9.140625,12.1875 L9.140625,13.125 C9.140625,13.6428223 9.56030273,14.0625 10.078125,14.0625 C10.5959473,14.0625 11.015625,13.6428223 11.015625,13.125 L11.015625,12.1875 C11.015625,11.6696777 10.5959473,11.25 10.078125,11.25 Z M6.328125,15.46875 C5.81030273,15.46875 5.390625,15.8884277 5.390625,16.40625 L5.390625,17.34375 C5.390625,17.8615723 5.81030273,18.28125 6.328125,18.28125 C6.84594727,18.28125 7.265625,17.8615723 7.265625,17.34375 L7.265625,16.40625 C7.265625,15.8884277 6.84594727,15.46875 6.328125,15.46875 Z M10.078125,15.46875 C9.56030273,15.46875 9.140625,15.8884277 9.140625,16.40625 L9.140625,17.34375 C9.140625,17.8615723 9.56030273,18.28125 10.078125,18.28125 C10.5959473,18.28125 11.015625,17.8615723 11.015625,17.34375 L11.015625,16.40625 C11.015625,15.8884277 10.5959473,15.46875 10.078125,15.46875 Z M10.078125,19.6875 C9.56030273,19.6875 9.140625,20.1071777 9.140625,20.625 L9.140625,21.5625 C9.140625,22.0803223 9.56030273,22.5 10.078125,22.5 C10.5959473,22.5 11.015625,22.0803223 11.015625,21.5625 L11.015625,20.625 C11.015625,20.1071777 10.5959473,19.6875 10.078125,19.6875 Z M18.515625,12.1875 C18.515625,11.6696777 18.0959473,11.25 17.578125,11.25 C17.0603027,11.25 16.640625,11.6696777 16.640625,12.1875 L16.640625,13.125 C16.640625,13.6428223 17.0603027,14.0625 17.578125,14.0625 C18.0959473,14.0625 18.515625,13.6428223 18.515625,13.125 L18.515625,12.1875 Z M17.578125,15.46875 C17.0603027,15.46875 16.640625,15.8884277 16.640625,16.40625 L16.640625,17.34375 C16.640625,17.8615723 17.0603027,18.28125 17.578125,18.28125 C18.0959473,18.28125 18.515625,17.8615723 18.515625,17.34375 L18.515625,16.40625 C18.515625,15.8884277 18.0959473,15.46875 17.578125,15.46875 Z M6.328125,19.6875 C5.81030273,19.6875 5.390625,20.1071777 5.390625,20.625 L5.390625,21.5625 C5.390625,22.0803223 5.81030273,22.5 6.328125,22.5 C6.84594727,22.5 7.265625,22.0803223 7.265625,21.5625 L7.265625,20.625 C7.265625,20.1071777 6.84594727,19.6875 6.328125,19.6875 Z M6.328125,7.03125 C5.81030273,7.03125 5.390625,7.45092773 5.390625,7.96875 L5.390625,8.90625 C5.390625,9.42407227 5.81030273,9.84375 6.328125,9.84375 C6.84594727,9.84375 7.265625,9.42407227 7.265625,8.90625 L7.265625,7.96875 C7.265625,7.45092773 6.84594727,7.03125 6.328125,7.03125 Z M10.078125,7.03125 C9.56030273,7.03125 9.140625,7.45092773 9.140625,7.96875 L9.140625,8.90625 C9.140625,9.42407227 9.56030273,9.84375 10.078125,9.84375 C10.5959473,9.84375 11.015625,9.42407227 11.015625,8.90625 L11.015625,7.96875 C11.015625,7.45092773 10.5959473,7.03125 10.078125,7.03125 Z" id="Shape" fill="#BFC5D2" fill-rule="nonzero"></path>
    </g>
</svg>