<?xml version="1.0" encoding="UTF-8"?>
<svg width="24px" height="24px" viewBox="0 0 24 24" version="1.1" xmlns="http://www.w3.org/2000/svg" xmlns:xlink="http://www.w3.org/1999/xlink">
    <title>25A39C63-79B0-44BA-8F4D-3E1F0FA83EC3</title>
    <defs>
        <rect id="path-1" x="0" y="54" width="72" height="714"></rect>
        <filter x="-11.1%" y="-1.4%" width="127.8%" height="102.8%" filterUnits="objectBoundingBox" id="filter-2">
            <feOffset dx="2" dy="0" in="SourceAlpha" result="shadowOffsetOuter1"></feOffset>
            <feGaussianBlur stdDeviation="3" in="shadowOffsetOuter1" result="shadowBlurOuter1"></feGaussianBlur>
            <feColorMatrix values="0 0 0 0 0.1   0 0 0 0 0.1   0 0 0 0 0.1  0 0 0 0.1 0" type="matrix" in="shadowBlurOuter1"></feColorMatrix>
        </filter>
    </defs>
    <g id="🟢-New-Prototype-Flow-V2" stroke="none" stroke-width="1" fill="none" fill-rule="evenodd">
        <g id="03-01-Project-list" transform="translate(-24.000000, -80.000000)">
            <rect fill="#EEF2F9" x="0" y="0" width="1366" height="768"></rect>
            <g id="Nav-bar">
                <rect id="Rectangle" fill="#FFFFFF" x="0" y="0" width="72" height="768"></rect>
                <g id="Rectangle">
                    <use fill="black" fill-opacity="1" filter="url(#filter-2)" xlink:href="#path-1"></use>
                    <use fill="#FFFFFF" fill-rule="evenodd" xlink:href="#path-1"></use>
                </g>
                <g id="Menu-/-active" transform="translate(16.000000, 72.000000)">
                    <rect id="Rectangle" fill="#FFFFFF" opacity="0" x="0" y="0" width="40" height="40"></rect>
                    <g id="icon/24w/dashboard" transform="translate(8.000000, 8.000000)">
                        <path d="M24,0 L24,24 L0,24 L0,0 L24,0 Z" id="Vector" opacity="0"></path>
                        <path d="M8.27000046,1.25 L4.23000002,1.25 C2.2345671,1.25 1.25,2.17624773 1.25,4.0999999 L1.25,19.8999996 C1.25,21.8237519 2.23456719,22.75 4.23000002,22.75 L8.27000046,22.75 C10.2654332,22.75 11.25,21.8237519 11.25,19.8999996 L11.25,4.0999999 C11.25,2.17624766 10.2654333,1.25 8.27000046,1.25 Z M4.07364743,2.75175884 L8.27000046,2.75 C9.45678969,2.75 9.75,3.02584253 9.75,4.0999999 L9.75,19.8999996 C9.75,20.9741572 9.45678949,21.25 8.27000046,21.25 L4.23000002,21.25 C3.09715577,21.25 2.77850176,20.9986637 2.75187381,20.0415765 L2.75,4.0999999 C2.75,3.07466804 3.0171609,2.77672602 4.07364743,2.75175884 Z M19.7700005,1.25 L15.7299995,1.25 C13.7345667,1.25 12.75,2.17624766 12.75,4.0999999 L12.75,10.8999996 C12.75,12.8237519 13.7345668,13.75 15.7299995,13.75 L19.7700005,13.75 C21.7654332,13.75 22.75,12.8237519 22.75,10.8999996 L22.75,4.0999999 C22.75,2.17624766 21.7654333,1.25 19.7700005,1.25 Z M19.7700005,2.75 C20.9567897,2.75 21.25,3.02584253 21.25,4.0999999 L21.25,10.8999996 C21.25,11.9741572 20.9567895,12.25 19.7700005,12.25 L15.7299995,12.25 C14.5971555,12.25 14.2785017,11.9986639 14.2518738,11.0415765 L14.25,4.0999999 C14.25,3.07466786 14.5171606,2.776726 15.573647,2.75175884 L19.7700005,2.75 Z M19.7700005,15.25 L15.7299995,15.25 C13.7345668,15.25 12.75,16.1762481 12.75,18.1000004 L12.75,19.8999996 C12.75,21.8237519 13.7345668,22.75 15.7299995,22.75 L19.7700005,22.75 C21.7654332,22.75 22.75,21.8237519 22.75,19.8999996 L22.75,18.1000004 C22.75,16.1762481 21.7654332,15.25 19.7700005,15.25 Z M15.573647,16.7517588 L19.7700005,16.75 C20.9567895,16.75 21.25,17.0258428 21.25,18.1000004 L21.25,19.8999996 C21.25,20.9741572 20.9567895,21.25 19.7700005,21.25 L15.7299995,21.25 C14.5971555,21.25 14.2785017,20.9986639 14.2518738,20.0415765 L14.25,18.1000004 C14.25,17.0746682 14.5171608,16.776726 15.573647,16.7517588 Z" id="Combined-Shape" fill="#758CAB"></path>
                    </g>
                </g>
            </g>
        </g>
    </g>
</svg>