<?xml version="1.0" encoding="UTF-8"?>
<svg width="24px" height="24px" viewBox="0 0 24 24" version="1.1" xmlns="http://www.w3.org/2000/svg" xmlns:xlink="http://www.w3.org/1999/xlink">
    <title>A41ACBC0-9920-43C1-9A4C-FA2CEE70412B</title>
    <defs>
        <rect id="path-1" x="0" y="54" width="72" height="714"></rect>
        <filter x="-11.1%" y="-1.4%" width="127.8%" height="102.8%" filterUnits="objectBoundingBox" id="filter-2">
            <feOffset dx="2" dy="0" in="SourceAlpha" result="shadowOffsetOuter1"></feOffset>
            <feGaussianBlur stdDeviation="3" in="shadowOffsetOuter1" result="shadowBlurOuter1"></feGaussianBlur>
            <feColorMatrix values="0 0 0 0 0.1   0 0 0 0 0.1   0 0 0 0 0.1  0 0 0 0.1 0" type="matrix" in="shadowBlurOuter1"></feColorMatrix>
        </filter>
    </defs>
    <g id="🟢-New-Prototype-Flow-V2" stroke="none" stroke-width="1" fill="none" fill-rule="evenodd">
        <g id="03-01-Project-list" transform="translate(-24.000000, -136.000000)">
            <rect fill="#EEF2F9" x="0" y="0" width="1366" height="768"></rect>
            <g id="Nav-bar">
                <rect id="Rectangle" fill="#FFFFFF" x="0" y="0" width="72" height="768"></rect>
                <g id="Rectangle">
                    <use fill="black" fill-opacity="1" filter="url(#filter-2)" xlink:href="#path-1"></use>
                    <use fill="#FFFFFF" fill-rule="evenodd" xlink:href="#path-1"></use>
                </g>
                <g id="Menu-/-active" transform="translate(16.000000, 128.000000)">
                    <rect id="Rectangle" fill="#E6F0FF" x="0" y="0" width="40" height="40" rx="8"></rect>
                    <g id="icon/24w/dashboard" transform="translate(8.000000, 8.000000)">
                        <path d="M24,0 L24,24 L0,24 L0,0 L24,0 Z" id="Vector" opacity="0" transform="translate(12.000000, 12.000000) rotate(-180.000000) translate(-12.000000, -12.000000) "></path>
                        <path d="M8.5,1.25 L7,1.25 C2.67233964,1.25 1.30356734,2.53391622 1.25155384,6.74387791 L1.25,17 C1.25,21.4142136 2.58578644,22.75 7,22.75 L17,22.75 C21.4142136,22.75 22.75,21.4142136 22.75,17 L22.75,11 C22.75,6.67233964 21.4660838,5.30356734 17.2561221,5.25155384 L14,5.25 C13.5254391,5.25 13.3865552,5.20882836 13.2208162,5.02703927 L13.1149766,4.8999404 L12.9971213,4.74618736 L11.3016168,2.48859061 L11.2036157,2.36576505 C10.549061,1.56470291 9.84385813,1.25 8.5,1.25 Z M6.77026329,2.75096489 L8.5,2.75 C9.40569394,2.75 9.68083177,2.87278264 10.0420689,3.3148747 L10.2274837,3.55352628 L11.9399971,5.83246211 L12.0054636,5.91378565 C12.4927483,6.50639887 13.0337008,6.75 14,6.75 L17,6.75 C17.1559038,6.75 17.3062847,6.7512556 17.4513283,6.75395234 L17.8706329,6.76655148 L18.259027,6.7889106 L18.6176236,6.82214291 C20.3379689,7.01734268 20.9826573,7.66203112 21.1778571,9.38237636 L21.2110894,9.74097303 L21.2334485,10.1293671 L21.2460477,10.5486717 L21.25,11 L21.25,17 C21.25,17.1559038 21.2487444,17.3062847 21.2460477,17.4513283 L21.2334485,17.8706329 L21.2110894,18.259027 L21.1778571,18.6176236 C20.9826573,20.3379689 20.3379689,20.9826573 18.6176236,21.1778571 L18.259027,21.2110894 L17.8706329,21.2334485 L17.4513283,21.2460477 L17,21.25 L7,21.25 C6.84409624,21.25 6.69371531,21.2487444 6.54867166,21.2460477 L6.12936707,21.2334485 L5.74097303,21.2110894 L5.38237636,21.1778571 C3.66203112,20.9826573 3.01734268,20.3379689 2.82214291,18.6176236 L2.7889106,18.259027 L2.76655148,17.8706329 L2.75395234,17.4513283 C2.75260397,17.3788065 2.75161589,17.3049504 2.75096489,17.2297367 L2.75,7 C2.75,6.84409624 2.7512556,6.69371531 2.75395234,6.54867166 L2.76655148,6.12936707 L2.7889106,5.74097303 L2.82214291,5.38237636 C3.01734268,3.66203112 3.66203112,3.01734268 5.38237636,2.82214291 L5.74097303,2.7889106 L6.12936707,2.76655148 L6.54867166,2.75395234 C6.62119348,2.75260397 6.69504963,2.75161589 6.77026329,2.75096489 Z" id="Vector" fill="#0D72FF"></path>
                    </g>
                </g>
            </g>
        </g>
    </g>
</svg>