<?xml version="1.0" encoding="UTF-8"?>
<svg width="24px" height="24px" viewBox="0 0 24 24" version="1.1" xmlns="http://www.w3.org/2000/svg" xmlns:xlink="http://www.w3.org/1999/xlink">
    <title>56BCF93D-C137-4030-9438-4EEDD5AF78BC</title>
    <defs>
        <rect id="path-1" x="0" y="54" width="72" height="714"></rect>
        <filter x="-11.1%" y="-1.4%" width="127.8%" height="102.8%" filterUnits="objectBoundingBox" id="filter-2">
            <feOffset dx="2" dy="0" in="SourceAlpha" result="shadowOffsetOuter1"></feOffset>
            <feGaussianBlur stdDeviation="3" in="shadowOffsetOuter1" result="shadowBlurOuter1"></feGaussianBlur>
            <feColorMatrix values="0 0 0 0 0.1   0 0 0 0 0.1   0 0 0 0 0.1  0 0 0 0.1 0" type="matrix" in="shadowBlurOuter1"></feColorMatrix>
        </filter>
    </defs>
    <g id="🟢-New-Prototype-Flow-V2" stroke="none" stroke-width="1" fill="none" fill-rule="evenodd">
        <g id="03-01-Project-list" transform="translate(-24.000000, -192.000000)">
            <rect fill="#EEF2F9" x="0" y="0" width="1366" height="768"></rect>
            <g id="Nav-bar">
                <rect id="Rectangle" fill="#FFFFFF" x="0" y="0" width="72" height="768"></rect>
                <g id="Rectangle">
                    <use fill="black" fill-opacity="1" filter="url(#filter-2)" xlink:href="#path-1"></use>
                    <use fill="#FFFFFF" fill-rule="evenodd" xlink:href="#path-1"></use>
                </g>
                <g id="Menu-/-active" transform="translate(16.000000, 184.000000)">
                    <rect id="Rectangle" fill="#FFFFFF" opacity="0" x="0" y="0" width="40" height="40"></rect>
                    <g id="icon/24w/dashboard" transform="translate(8.000000, 8.000000)">
                        <path d="M24,0 L24,24 L0,24 L0,0 L24,0 Z" id="Vector" opacity="0"></path>
                        <path d="M13.1357411,3.22274796 C13.8338889,2.04926548 15.3482324,1.64544062 16.5191234,2.34204664 L16.5191234,2.34204664 L18.2769083,3.3478206 C19.5745559,4.08933343 20.0222151,5.75587087 19.275935,7.04750809 L19.275935,7.04750809 L19.2020228,7.18194865 C18.6759205,8.19547754 19.0808097,8.81067602 20.2896331,8.81067602 L20.2896331,8.81067602 L20.4603324,8.81601781 C21.8719351,8.90460362 23,10.0838573 23,11.5210424 L23,11.5210424 L23,13.3211356 C23,14.8113874 21.7843057,16.0315024 20.2896331,16.0315024 L20.2896331,16.0315024 L20.1365303,16.0349737 C18.9978581,16.088066 18.6687349,16.7470836 19.2782888,17.7987593 C20.0206301,19.0978565 19.5749482,20.752621 18.2773227,21.494121 L18.2773227,21.494121 L16.5191234,22.5001317 C15.3482323,23.1967378 13.8338888,22.7929144 13.1311241,21.6115654 L13.1311241,21.6115654 L13.0169787,21.4143918 C12.3908928,20.3222197 11.6160729,20.3222197 10.9813829,21.4172341 L10.9813829,21.4172341 L10.8642589,21.6194321 C10.1661112,22.7929144 8.65176817,23.1967378 7.49208692,22.5066731 L7.49208692,22.5066731 L5.72309167,21.494358 C4.42544408,20.7528451 3.97778391,19.0863065 4.72406399,17.7946694 L4.72406399,17.7946694 L4.79797623,17.6602288 C5.32407875,16.6466998 4.91919054,16.0315024 3.71036734,16.0315024 L3.71036734,16.0315024 L3.53919648,16.0261418 C2.12397815,15.9372478 1,14.75407 1,13.3211356 L1,13.3211356 L1,11.5210424 C1,10.0307906 2.21569474,8.81067602 3.71036734,8.81067602 L3.71036734,8.81067602 L3.86347025,8.80720494 C5.00214485,8.75411789 5.33134044,8.09522673 4.72353438,7.04659291 L4.72353438,7.04659291 L4.63975069,6.88998563 C4.01495605,5.62402837 4.47733338,4.05968244 5.72267729,3.34805756 L5.72267729,3.34805756 L7.48087709,2.34204664 C8.65176808,1.64544063 10.1661111,2.04926547 10.8688768,3.23061605 L10.8688768,3.23061605 L10.9830203,3.42778752 C11.6091062,4.51995961 12.3839262,4.51995961 13.0186182,3.42494158 L13.0186182,3.42494158 Z M15.7347136,3.66052275 C15.2991085,3.40136529 14.7232685,3.55492257 14.4588337,3.99929218 L14.4588337,3.99929218 L14.3461353,4.19395155 C13.1195595,6.31013178 10.8669505,6.31013178 9.65367034,4.19361771 L9.65367034,4.19361771 L9.54578277,4.00715777 C9.27673143,3.55492252 8.70089196,3.40136532 8.25407714,3.66706409 L8.25407714,3.66706409 L6.48425317,4.67985332 C5.92561469,4.9990753 5.73098828,5.72362542 6.05138911,6.27816678 C7.27792918,8.39428538 6.15387749,10.3448462 3.71036734,10.3448462 C3.06424235,10.3448462 2.53417014,10.8768455 2.53417014,11.5210424 L2.53417014,11.5210424 L2.53417014,13.3211356 C2.53417014,13.9653326 3.06424251,14.4973323 3.71036734,14.4973323 C6.15387751,14.4973323 7.27792917,16.4478921 6.05191872,18.5630955 C5.73098822,19.1185522 5.92561479,19.8431033 6.4846675,20.1625622 L6.4846675,20.1625622 L8.26528691,21.1816556 C8.70089261,21.4408134 9.27673181,21.2872569 9.54116425,20.8428914 L9.54116425,20.8428914 L9.65386372,20.6482277 C10.8804395,18.5320475 13.1330485,18.5320475 14.3463279,20.6485602 L14.3463279,20.6485602 L14.4542172,20.8350223 C14.7232682,21.2872568 15.2991078,21.4408134 15.7459233,21.1751143 L15.7459233,21.1751143 L17.5157468,20.1623252 C18.0762327,19.8420476 18.2692934,19.1252361 17.9486099,18.5640107 C16.7220699,16.4478922 17.8461229,14.4973323 20.2896331,14.4973323 C20.9357578,14.4973323 21.4658299,13.9653327 21.4658299,13.3211356 L21.4658299,13.3211356 L21.4658299,11.5210424 C21.4658299,10.8749178 20.9338305,10.3448462 20.2896331,10.3448462 C17.8461229,10.3448462 16.7220699,8.39428533 17.9480803,6.27908196 C18.269011,5.72362506 18.074385,4.99907509 17.5153324,4.67961632 L17.5153324,4.67961632 Z M11.994886,8.58572899 C14.1131329,8.58572899 15.8303113,10.3029074 15.8303113,12.4211543 C15.8303113,14.5394013 14.1131329,16.2565797 11.994886,16.2565797 C9.87663903,16.2565797 8.15946064,14.5394013 8.15946064,12.4211543 C8.15946064,10.3029074 9.87663903,8.58572899 11.994886,8.58572899 Z M11.994886,10.1198991 C10.7239378,10.1198991 9.69363078,11.1502062 9.69363078,12.4211543 C9.69363078,13.6921025 10.7239378,14.7224095 11.994886,14.7224095 C13.2658342,14.7224095 14.2961412,13.6921025 14.2961412,12.4211543 C14.2961412,11.1502062 13.2658342,10.1198991 11.994886,10.1198991 Z" id="Combined-Shape" fill="#758CAB"></path>
                    </g>
                </g>
            </g>
        </g>
    </g>
</svg>