<?xml version="1.0" encoding="UTF-8"?>
<svg width="24px" height="24px" viewBox="0 0 24 24" version="1.1" xmlns="http://www.w3.org/2000/svg" xmlns:xlink="http://www.w3.org/1999/xlink">
    <title>Icon/24w/application list</title>
    <g id="Icon/24w/application-list" stroke="none" stroke-width="1" fill="none" fill-rule="evenodd">
        <path d="M24,0 L24,24 L0,24 L0,0 L24,0 Z" id="Vector" opacity="1"></path>
        <path d="M12.1453692,17.5542916 C13.4660515,17.5542916 14.5366801,18.6614265 14.5366801,20.0271454 C14.5366801,21.3928645 13.4660514,22.5 12.1453692,22.5 C10.8246881,22.5 9.75406975,21.3928656 9.75406975,20.0271454 C9.75406975,18.6614253 10.8246881,17.5542916 12.1453692,17.5542916 Z M20.1086891,17.5542916 C21.4293714,17.5542916 22.5,18.6614265 22.5,20.0271454 C22.5,21.3928645 21.4293713,22.5 20.1086891,22.5 C18.788008,22.5 17.7173896,21.3928656 17.7173896,20.0271454 C17.7173896,18.6614253 18.788008,17.5542916 20.1086891,17.5542916 Z M3.89131087,17.5542916 C5.21199204,17.5542916 6.28261036,18.6614253 6.28261036,20.0271454 C6.28261036,21.3928656 5.21199197,22.5 3.89131087,22.5 C2.57062866,22.5 1.5,21.3928645 1.5,20.0271454 C1.5,18.6614265 2.5706286,17.5542916 3.89131087,17.5542916 Z M12.1453692,18.7098308 C11.4418303,18.7098308 10.8715024,19.2996107 10.8715024,20.0271454 C10.8715024,20.7546803 11.4418305,21.3444608 12.1453692,21.3444608 C12.8489112,21.3444608 13.4192475,20.754677 13.4192475,20.0271454 C13.4192475,19.2996141 12.8489114,18.7098308 12.1453692,18.7098308 Z M20.1086891,18.7098308 C19.4051502,18.7098308 18.8348223,19.2996107 18.8348223,20.0271454 C18.8348223,20.7546803 19.4051504,21.3444608 20.1086891,21.3444608 C20.8122311,21.3444608 21.3825674,20.754677 21.3825674,20.0271454 C21.3825674,19.2996141 20.8122313,18.7098308 20.1086891,18.7098308 Z M3.89131087,18.7098308 C3.18776867,18.7098308 2.61743265,19.2996141 2.61743265,20.0271454 C2.61743265,20.754677 3.18776887,21.3444608 3.89131087,21.3444608 C4.59484962,21.3444608 5.16517772,20.7546803 5.16517772,20.0271454 C5.16517772,19.2996107 4.59484982,18.7098308 3.89131087,18.7098308 Z M12.1453692,9.52714543 C13.4660515,9.52714543 14.5366801,10.6342803 14.5366801,11.9999993 C14.5366801,13.3657183 13.4660514,14.4728538 12.1453692,14.4728538 C10.8246881,14.4728538 9.75406975,13.3657194 9.75406975,11.9999993 C9.75406975,10.6342792 10.8246881,9.52714543 12.1453692,9.52714543 Z M20.1086891,9.52714543 C21.4293714,9.52714543 22.5,10.6342803 22.5,11.9999993 C22.5,13.3657183 21.4293713,14.4728538 20.1086891,14.4728538 C18.788008,14.4728538 17.7173896,13.3657194 17.7173896,11.9999993 C17.7173896,10.6342792 18.788008,9.52714543 20.1086891,9.52714543 Z M3.89131087,9.52714543 C5.21199204,9.52714543 6.28261036,10.6342792 6.28261036,11.9999993 C6.28261036,13.3657194 5.21199197,14.4728538 3.89131087,14.4728538 C2.57062866,14.4728538 1.5,13.3657183 1.5,11.9999993 C1.5,10.6342803 2.5706286,9.52714543 3.89131087,9.52714543 Z M12.1453692,10.6826846 C11.4418303,10.6826846 10.8715024,11.2724646 10.8715024,11.9999993 C10.8715024,12.7275342 11.4418305,13.3173147 12.1453692,13.3173147 C12.8489112,13.3173147 13.4192475,12.7275308 13.4192475,11.9999993 C13.4192475,11.2724679 12.8489114,10.6826846 12.1453692,10.6826846 Z M20.1086891,10.6826846 C19.4051502,10.6826846 18.8348223,11.2724646 18.8348223,11.9999993 C18.8348223,12.7275342 19.4051504,13.3173147 20.1086891,13.3173147 C20.8122311,13.3173147 21.3825674,12.7275308 21.3825674,11.9999993 C21.3825674,11.2724679 20.8122313,10.6826846 20.1086891,10.6826846 Z M3.89131087,10.6826846 C3.18776867,10.6826846 2.61743265,11.2724679 2.61743265,11.9999993 C2.61743265,12.7275308 3.18776887,13.3173147 3.89131087,13.3173147 C4.59484962,13.3173147 5.16517772,12.7275342 5.16517772,11.9999993 C5.16517772,11.2724646 4.59484982,10.6826846 3.89131087,10.6826846 Z M12.1453692,1.5 C13.4660515,1.5 14.5366801,2.60713469 14.5366801,3.97285365 C14.5366801,5.33857265 13.4660515,6.44570767 12.1453692,6.44570767 C10.8246881,6.44570767 9.75406975,5.33857378 9.75406975,3.97285365 C9.75406975,2.60713355 10.8246881,1.5 12.1453692,1.5 Z M20.1086891,1.5 C21.4293714,1.5 22.5,2.60713469 22.5,3.97285365 C22.5,5.33857265 21.4293714,6.44570767 20.1086891,6.44570767 C18.788008,6.44570767 17.7173896,5.33857378 17.7173896,3.97285365 C17.7173896,2.60713355 18.7880079,1.5 20.1086891,1.5 Z M3.89131087,1.5 C5.21199206,1.5 6.28261036,2.60713355 6.28261036,3.97285365 C6.28261036,5.33857378 5.21199202,6.44570767 3.89131087,6.44570767 C2.57062861,6.44570767 1.5,5.33857265 1.5,3.97285365 C1.5,2.60713469 2.57062858,1.5 3.89131087,1.5 Z M12.1453692,2.65553916 C11.4418302,2.65553916 10.8715024,3.245319 10.8715024,3.97285365 C10.8715024,4.70038841 11.4418303,5.29016851 12.1453692,5.29016851 C12.8489114,5.29016851 13.4192475,4.70038506 13.4192475,3.97285365 C13.4192475,3.24532235 12.8489115,2.65553916 12.1453692,2.65553916 Z M20.1086891,2.65553916 C19.4051501,2.65553916 18.8348223,3.245319 18.8348223,3.97285365 C18.8348223,4.70038841 19.4051502,5.29016851 20.1086891,5.29016851 C20.8122313,5.29016851 21.3825674,4.70038506 21.3825674,3.97285365 C21.3825674,3.24532235 20.8122314,2.65553916 20.1086891,2.65553916 Z M3.89131087,2.65553916 C3.18776862,2.65553916 2.61743265,3.24532235 2.61743265,3.97285365 C2.61743265,4.70038506 3.18776872,5.29016851 3.89131087,5.29016851 C4.59484977,5.29016851 5.16517772,4.70038841 5.16517772,3.97285365 C5.16517772,3.245319 4.59484987,2.65553916 3.89131087,2.65553916 Z" id="application-list" fill="#fff"></path>
    </g>
</svg>