<?xml version="1.0" encoding="UTF-8"?>
<svg width="152px" height="36px" viewBox="0 0 152 36" version="1.1" xmlns="http://www.w3.org/2000/svg" xmlns:xlink="http://www.w3.org/1999/xlink">
    <title>Unaito - Header Logo</title>
    <g id="⚙️Components" stroke="none" stroke-width="1" fill="none" fill-rule="evenodd">
        <g id="Unaito---Header-Logo" fill="#FFFFFF" fill-rule="nonzero">
            <path d="M8.94152014,30.3082915 L3.19939812,30.3100964 L3.08626978,30.3133029 L2.96482034,30.325822 C2.02517503,30.4515505 1.32885461,31.2458754 1.32921317,32.1949041 C1.32958738,33.1823821 2.08150288,33.9936422 3.03592636,34.0719066 L3.15624431,34.0778317 L8.90265145,34.0760617 L9.01577979,34.0728553 L9.13722923,34.0603362 C10.0768745,33.9346077 10.7731949,33.1402828 10.7728364,32.1912541 C10.7724466,31.1626312 9.95658234,30.3252169 8.94152014,30.3082915 Z M44.9360263,30.3036157 L40.0269779,30.3035597 L39.9103488,30.3087719 C38.9331927,30.381456 38.177144,31.1980488 38.177144,32.1875589 C38.177144,33.1885584 38.948627,34.0063703 39.9219042,34.0677981 L40.0396296,34.0715021 L44.9263822,34.0716867 L45.0706086,34.0663293 C46.0432007,33.9936508 46.798512,33.1763032 46.798512,32.1875589 C46.798512,31.1865594 46.027029,30.3687476 45.0537518,30.3073197 L44.9360263,30.3036157 Z M24.3909839,0 L24.1691053,0.002242466 L23.9396601,0.009426546 C18.5161212,0.237406863 14.1439271,4.58122646 13.8036984,10.0296816 L13.7914555,10.2672578 L13.7815649,10.5499801 L13.5101231,10.6039171 L13.2786571,10.6544621 C9.327995,11.5639138 6.22211853,14.6990558 5.31127696,18.677445 L5.25927131,18.9171492 L5.19916987,19.2162886 L1.86932779,19.2189392 L1.7561453,19.2222019 L1.63470198,19.2347815 C0.695117406,19.3609779 -0.000817222229,20.1556506 7.20250352e-07,21.1046792 C0.000860490771,22.0921573 0.753170911,22.9030412 1.70763479,22.9808302 L1.82795592,22.9866954 L6.83575813,22.9866067 L6.8069592,22.9843264 L6.90086306,22.9869726 C7.88937235,22.9869726 8.69887488,22.2076607 8.75973617,21.2173077 L8.77044687,20.7803976 C8.93502842,17.0822114 11.962776,14.1546782 15.6444286,14.1546782 C16.3765559,14.1546782 17.0949882,14.2695361 17.7747211,14.4933744 L18.027758,14.5824108 L18.1695191,14.6294019 C19.1049582,14.8998527 20.0904952,14.3992852 20.4298572,13.4746826 C20.7739057,12.5373114 20.333409,11.5001999 19.4473143,11.1002427 L19.3342562,11.0536199 L19.021885,10.9421036 L18.7026304,10.8395204 C18.4913012,10.7753187 18.2780986,10.7178768 18.0636401,10.6673338 L17.7202242,10.5925976 L17.5024893,10.5496713 L17.5319528,10.116905 C17.8249217,6.60595944 20.701459,3.86900325 24.1971852,3.77066313 L24.3920167,3.76792626 L24.5925914,3.77093135 L24.7881613,3.77944822 C28.163394,3.97495033 30.8931378,6.62855409 31.233916,10.0068373 L31.2509134,10.2025299 L31.2707621,10.5495258 L30.9806886,10.6084971 L30.7380573,10.6621775 C27.2984824,11.4657925 24.4661694,13.958731 23.2106871,17.3090606 C22.8457202,18.2829966 23.3312978,19.3710406 24.2936873,19.7390372 C25.2163942,20.0918601 26.2435424,19.6550291 26.6472258,18.7576183 L26.6943863,18.6430669 L26.7274612,18.5566249 L26.8081389,18.3583785 C27.8900493,15.8131618 30.3765814,14.1546782 33.1323181,14.1546782 C36.8676738,14.1546782 39.9069703,17.1597609 40.0106632,20.9051925 L40.013398,21.1029919 L40.0133503,22.4587416 L40.0185227,22.5767618 C40.0876321,23.5247521 40.8327542,24.2654635 41.7491398,24.3256126 L41.8695981,24.3297621 L41.9543619,24.3283296 L42.0375112,24.3245206 L42.0561106,24.3269329 L42.1552993,24.3294814 L47.0639311,24.3297621 L47.1809768,24.3243252 C48.1174181,24.2546695 48.8507937,23.5018061 48.9103732,22.5746259 L48.9142846,22.4527426 L48.9115201,22.3416421 L48.9016054,22.2252278 C48.7977395,21.3219015 48.0665769,20.6245637 47.1743185,20.5656332 L47.0516921,20.5615949 L43.7240069,20.5615442 L43.7029979,20.2316535 L43.680506,19.987395 C43.2082779,15.4198599 39.8947726,11.6618596 35.4919971,10.6534363 L35.1893824,10.5886681 L34.996905,10.5494456 L34.9738875,10.043743 C34.6337621,4.49188692 30.1254373,0.122850328 24.6215177,0.002559161 L24.3909839,0 Z" id="Combined-Shape"></path>
            <path d="M32.9584088,19.745468 C33.9898223,19.745468 34.8240169,20.536977 34.8414953,21.5264676 L34.8414953,25.2109839 C34.8414953,30.8889621 30.0478815,35.4960135 24.1298196,35.4960135 C18.2789224,35.4960135 13.5142138,30.9883095 13.4195431,25.375126 L13.4181746,25.2088952 L13.4181746,21.5454382 C13.4181746,20.5536289 14.2590636,19.745468 15.3012304,19.745468 C16.3326639,19.745468 17.1668131,20.5369866 17.1841107,21.5264219 L17.1842775,25.2109979 C17.1842775,28.9053435 20.2960911,31.8960731 24.1298196,31.8960731 C27.9183556,31.8960731 31.0128574,28.9714694 31.0743559,25.3274765 L31.0753522,25.2131613 L31.0753616,21.5454382 C31.0753616,20.5536289 31.9162421,19.745468 32.9584088,19.745468 Z" id="Shape"></path>
            <path d="M67.4800014,26.5360135 C71.4400014,26.5360135 74.7520014,23.4880135 74.7520014,19.4560135 L74.7520014,10.8880135 C74.7520014,9.68801351 73.9840014,9.01601351 72.9520014,9.01601351 C71.9200014,9.01601351 71.1520014,9.68801351 71.1520014,10.8880135 L71.1520014,19.2640135 C71.1520014,21.3760135 69.6640014,23.2240135 67.4800014,23.2240135 C65.2000014,23.2240135 63.7840014,21.4720135 63.7840014,19.2640135 L63.7840014,10.8880135 C63.7840014,9.68801351 63.0160014,9.01601351 61.9840014,9.01601351 C60.9520014,9.01601351 60.1840014,9.68801351 60.1840014,10.8880135 L60.1840014,19.4560135 C60.1840014,23.5360135 63.4720014,26.5360135 67.4800014,26.5360135 Z M91.3920014,26.3920135 C92.4240014,26.3920135 93.1920014,25.7200135 93.1920014,24.5200135 L93.1920014,10.8880135 C93.1920014,9.68801351 92.4240014,9.01601351 91.3920014,9.01601351 C90.3600014,9.01601351 89.5920014,9.68801351 89.5920014,10.8880135 L89.5920014,19.9600135 L89.5440014,19.9600135 L81.9360014,9.80801351 C81.6240014,9.37601351 80.8800014,9.01601351 80.4240014,9.01601351 C79.3920014,9.01601351 78.6240014,9.68801351 78.6240014,10.8880135 L78.6240014,24.5200135 C78.6240014,25.7200135 79.3920014,26.3920135 80.4240014,26.3920135 C81.4560014,26.3920135 82.2240014,25.7200135 82.2240014,24.5200135 L82.2240014,15.5680135 L82.2720014,15.5680135 L89.8800014,25.6000135 C90.2160014,26.0320135 90.9360014,26.3920135 91.3920014,26.3920135 Z M109.544001,26.3920135 C110.432001,26.3920135 111.200001,25.7440135 111.200001,24.8080135 C111.200001,24.6400135 111.152001,24.3040135 111.008001,23.9200135 L106.304001,10.8640135 C105.896001,9.71201351 105.008001,8.87201351 103.736001,8.87201351 C102.512001,8.87201351 101.576001,9.76001351 101.168001,10.8640135 L96.3440014,23.9200135 C96.2960014,24.0400135 96.1760014,24.3280135 96.1760014,24.7120135 C96.1760014,25.6720135 96.9920014,26.3920135 97.9520014,26.3920135 C98.9360014,26.3920135 99.4400014,25.8640135 99.6800014,25.1200135 L100.400001,22.8880135 L107.072001,22.8880135 L107.792001,25.1440135 C108.032001,25.8640135 108.536001,26.3920135 109.544001,26.3920135 Z M105.992001,19.5760135 L101.432001,19.5760135 L103.712001,12.6160135 L103.760001,12.6160135 L105.992001,19.5760135 Z M116.128001,26.3920135 C117.160001,26.3920135 117.928001,25.7200135 117.928001,24.5200135 L117.928001,10.8880135 C117.928001,9.68801351 117.160001,9.01601351 116.128001,9.01601351 C115.096001,9.01601351 114.328001,9.68801351 114.328001,10.8880135 L114.328001,24.5200135 C114.328001,25.7200135 115.096001,26.3920135 116.128001,26.3920135 Z M126.768001,26.3920135 C127.800001,26.3920135 128.568001,25.7200135 128.568001,24.5200135 L128.568001,12.4720135 L131.184001,12.4720135 C132.336001,12.4720135 132.816001,11.6320135 132.816001,10.8160135 C132.816001,9.97601351 132.216001,9.16001351 131.184001,9.16001351 L122.352001,9.16001351 C121.320001,9.16001351 120.720001,9.97601351 120.720001,10.8160135 C120.720001,11.6320135 121.200001,12.4720135 122.352001,12.4720135 L124.968001,12.4720135 L124.968001,24.5200135 C124.968001,25.7200135 125.736001,26.3920135 126.768001,26.3920135 Z M143.192001,26.5360135 C148.112001,26.5360135 151.448001,22.6720135 151.448001,17.7040135 C151.448001,12.8320135 148.016001,8.87201351 143.192001,8.87201351 C138.296001,8.87201351 134.936001,12.7120135 134.936001,17.7040135 C134.936001,22.6720135 138.320001,26.5360135 143.192001,26.5360135 Z M143.192001,23.2240135 C140.144001,23.2240135 138.680001,20.6320135 138.680001,17.7040135 C138.680001,14.8000135 140.192001,12.1840135 143.192001,12.1840135 C146.192001,12.1840135 147.704001,14.8000135 147.704001,17.7040135 C147.704001,20.6320135 146.240001,23.2240135 143.192001,23.2240135 Z" id="UNAITO"></path>
        </g>
    </g>
</svg>