<?xml version="1.0" encoding="UTF-8"?>
<svg width="24px" height="24px" viewBox="0 0 24 24" version="1.1" xmlns="http://www.w3.org/2000/svg" xmlns:xlink="http://www.w3.org/1999/xlink">
    <title>Icon/24w/Menu</title>
    <g id="Icon/24w/Menu" stroke="none" stroke-width="1" fill="none" fill-rule="evenodd">
        <path d="M24,0 L24,24 L0,24 L0,0 L24,0 Z" id="Vector" opacity="0"></path>
        <path d="M21,6.25 C21.4142136,6.25 21.75,6.58578644 21.75,7 C21.75,7.37969577 21.4678461,7.69349096 21.1017706,7.74315338 L21,7.75 L3,7.75 C2.58578644,7.75 2.25,7.41421356 2.25,7 C2.25,6.62030423 2.53215388,6.30650904 2.89822944,6.25684662 L3,6.25 L21,6.25 Z M21,11.25 C21.4142136,11.25 21.75,11.5857864 21.75,12 C21.75,12.3796958 21.4678461,12.693491 21.1017706,12.7431534 L21,12.75 L3,12.75 C2.58578644,12.75 2.25,12.4142136 2.25,12 C2.25,11.6203042 2.53215388,11.306509 2.89822944,11.2568466 L3,11.25 L21,11.25 Z M21,16.25 C21.4142136,16.25 21.75,16.5857864 21.75,17 C21.75,17.3796958 21.4678461,17.693491 21.1017706,17.7431534 L21,17.75 L3,17.75 C2.58578644,17.75 2.25,17.4142136 2.25,17 C2.25,16.6203042 2.53215388,16.306509 2.89822944,16.2568466 L3,16.25 L21,16.25 Z" id="Combined-Shape" fill="#fff"></path>
    </g>
</svg>