<?xml version="1.0" encoding="UTF-8"?>
<svg width="24px" height="24px" viewBox="0 0 24 24" version="1.1" xmlns="http://www.w3.org/2000/svg" xmlns:xlink="http://www.w3.org/1999/xlink">
    <title>Icon/24w/notification</title>
    <g id="Icon/24w/notification" stroke="none" stroke-width="1" fill="none" fill-rule="evenodd">
        <path d="M24,0 L24,24 L0,24 L0,0 L24,0 Z" id="Vector" opacity="0"></path>
        <path d="M12.0200443,1.18994141 C13.0330797,1.18994141 13.9426504,1.74433401 14.4163946,2.60259081 C16.9559204,3.57301556 18.7699661,6.03876551 18.7699661,8.90991211 L18.7699661,8.90991211 L18.7699661,11.7999125 C18.7699661,12.2677238 18.9898755,13.0695894 19.222491,13.4730514 L19.222491,13.4730514 L20.3730849,15.3840409 C21.2793934,16.8945551 20.5534012,18.8605965 18.8876312,19.4112603 C17.8026146,19.7737716 16.6967712,20.0481762 15.5801848,20.2344607 C15.0855192,21.7273605 13.6742919,22.8100586 12.0200195,22.8100586 C11.0202203,22.8100586 10.0645082,22.4052092 9.36968861,21.7103895 C8.95590833,21.2966092 8.64496491,20.7903045 8.46112078,20.2372643 C7.34080012,20.0499304 6.22974177,19.7745773 5.13951876,19.410325 C3.38431214,18.816255 2.70140171,16.9719616 3.65744051,15.3830521 L3.65744051,15.3830521 L4.80575537,13.4758635 C5.0485004,13.0686783 5.26996565,12.2708701 5.26996565,11.7999125 L5.26996565,11.7999125 L5.26996565,8.90991211 C5.26996565,6.02840665 7.08133956,3.56501133 9.62608862,2.59772468 C10.1002002,1.74265157 11.0085472,1.18994141 12.0200443,1.18994141 Z M13.778939,20.4577263 L13.6937694,20.4646849 C12.5513535,20.5534725 11.4036936,20.5514574 10.2613361,20.4586257 C10.3127862,20.5251413 10.3697391,20.5891197 10.4303488,20.6497293 C10.8468534,21.066234 11.4224405,21.3100586 12.0200195,21.3100586 C12.7292509,21.3100586 13.365502,20.9760032 13.778939,20.4577263 Z M12.8170177,3.74414976 C11.9623697,3.63731876 11.144789,3.69763212 10.3794007,3.92012869 L10.4156994,3.91032888 C8.30258586,4.58953555 6.76996565,6.57343887 6.76996565,8.90991211 L6.76996565,8.90991211 L6.76996565,11.7999125 C6.76996565,12.5423276 6.47487316,13.6053713 6.092491,14.2467725 L6.092491,14.2467725 L4.94260457,16.1565851 C4.48158155,16.9227924 4.76998428,17.7016636 5.61763182,17.9885658 C9.77337867,19.3770288 14.2565525,19.3770288 18.4145607,17.9878142 C19.1687499,17.7384955 19.4993303,16.8432591 19.0874398,16.1567733 L19.0874398,16.1567733 L17.9303264,14.2347038 C17.5606213,13.5938817 17.2699661,12.5340524 17.2699661,11.7999125 L17.2699661,11.7999125 L17.2699661,8.90991211 C17.2699661,6.56319648 15.7065331,4.5613922 13.5705664,3.89539863 C13.3135947,3.82433146 13.0645973,3.77416411 12.8170177,3.74414976 Z" id="Combined-Shape" fill="#fff"></path>
    </g>
</svg>