<?xml version="1.0" encoding="UTF-8"?>
<svg width="25px" height="24px" viewBox="0 0 25 24" version="1.1" xmlns="http://www.w3.org/2000/svg" xmlns:xlink="http://www.w3.org/1999/xlink">
    <!-- Generator: Sketch 53 (72520) - https://sketchapp.com -->
    <title>icon/profile</title>
    <desc>Created with Sketch.</desc>
    <g id="Symbols" stroke="none" stroke-width="1" fill="none" fill-rule="evenodd">
        <g id="Profile" transform="translate(-151.000000, -18.000000)" fill="#fff" fill-rule="nonzero">
            <path d="M175.613461,38.5650938 C175.507946,38.0582344 175.011586,37.732875 174.504538,37.8383906 C173.997631,37.9439062 173.672271,38.4404063 173.777834,38.9472656 C173.838631,39.23925 173.766209,39.5385 173.579271,39.7684687 C173.47099,39.9016406 173.229536,40.125 172.829317,40.125 L154.519262,40.125 C154.119043,40.125 153.87759,39.9015938 153.769308,39.7684687 C153.582324,39.5385469 153.509949,39.23925 153.570745,38.9472656 C154.543684,34.2740625 158.665643,30.8603438 163.425758,30.7452187 C163.508211,30.7484063 163.59104,30.75 163.67429,30.75 C163.757821,30.75 163.840977,30.7483594 163.923759,30.7451719 C167.276826,30.8256094 170.376017,32.5239375 172.252848,35.3229844 C172.541176,35.7530625 173.123505,35.8679063 173.553631,35.5795781 C173.983662,35.29125 174.098553,34.708875 173.810178,34.2788438 C172.271879,31.9845937 170.038142,30.3163125 167.491232,29.4780469 C169.043265,28.3141875 170.049298,26.4598594 170.049298,24.375 C170.049298,20.8598437 167.189497,18 163.67429,18 C160.159082,18 157.299282,20.8598437 157.299282,24.375 C157.299282,26.461125 158.306533,28.3164375 159.860207,29.4802031 C158.436705,29.9488594 157.101,30.6780938 155.931936,31.6396875 C153.788246,33.4029844 152.297759,35.8624688 151.735118,38.5650938 C151.558774,39.4119844 151.77004,40.2817969 152.314634,40.9514531 C152.856557,41.6178281 153.660136,42 154.519262,42 L172.82927,42 C173.688443,42 174.492022,41.6178281 175.033898,40.9514531 C175.578586,40.2817969 175.789805,39.4119844 175.613461,38.5650938 Z M159.174284,24.375 C159.174284,21.8936719 161.192958,19.875 163.67429,19.875 C166.155621,19.875 168.174296,21.8936719 168.174296,24.375 C168.174296,26.7799219 166.277965,28.7502656 163.902056,28.8692813 C163.826259,28.867875 163.750321,28.8671719 163.67429,28.8671719 C163.598633,28.8671719 163.522977,28.8679219 163.447414,28.8693281 C161.071083,28.7507812 159.174284,26.78025 159.174284,24.375 Z" id="icon/profile"></path>
        </g>
    </g>
</svg>