<?xml version="1.0" encoding="UTF-8"?>
<svg width="24px" height="24px" viewBox="0 0 24 24" version="1.1" xmlns="http://www.w3.org/2000/svg" xmlns:xlink="http://www.w3.org/1999/xlink">
    <title>Icon/24w/search</title>
    <g id="Icon/24w/search" stroke="none" stroke-width="1" fill="none" fill-rule="evenodd">
        <path d="M24,0 L24,24 L0,24 L0,0 L24,0 Z" id="Vector" opacity="0"></path>
        <path d="M20.4462117,19.3970518 L20.5303301,19.4696699 L22.5303301,21.4696699 C22.8232233,21.7625631 22.8232233,22.2374369 22.5303301,22.5303301 C22.2640635,22.7965966 21.8473998,22.8208027 21.5537883,22.6029482 L21.4696699,22.5303301 L19.4696699,20.5303301 C19.1767767,20.2374369 19.1767767,19.7625631 19.4696699,19.4696699 C19.7359365,19.2034034 20.1526002,19.1791973 20.4462117,19.3970518 Z M11.5,1.25 C17.1609186,1.25 21.75,5.83908138 21.75,11.5 C21.75,17.1609186 17.1609186,21.75 11.5,21.75 C5.83908138,21.75 1.25,17.1609186 1.25,11.5 C1.25,5.83908138 5.83908138,1.25 11.5,1.25 Z M11.5,2.75 C6.66750851,2.75 2.75,6.66750851 2.75,11.5 C2.75,16.3324915 6.66750851,20.25 11.5,20.25 C16.3324915,20.25 20.25,16.3324915 20.25,11.5 C20.25,6.66750851 16.3324915,2.75 11.5,2.75 Z" id="Combined-Shape" fill="#fff"></path>
    </g>
</svg>