<?xml version="1.0" encoding="UTF-8"?>
<svg width="32px" height="32px" viewBox="0 0 32 32" version="1.1" xmlns="http://www.w3.org/2000/svg" xmlns:xlink="http://www.w3.org/1999/xlink">
    <title>367A2C58-D0EA-4683-91F5-908343E398C4</title>
    <defs>
        <rect id="path-1" x="0" y="0" width="1037" height="80" rx="6"></rect>
        <filter x="-0.8%" y="-12.5%" width="101.9%" height="125.0%" filterUnits="objectBoundingBox" id="filter-2">
            <feOffset dx="2" dy="0" in="SourceAlpha" result="shadowOffsetOuter1"></feOffset>
            <feGaussianBlur stdDeviation="3" in="shadowOffsetOuter1" result="shadowBlurOuter1"></feGaussianBlur>
            <feColorMatrix values="0 0 0 0 0.1   0 0 0 0 0.1   0 0 0 0 0.1  0 0 0 0.1 0" type="matrix" in="shadowBlurOuter1"></feColorMatrix>
        </filter>
    </defs>
    <g id="🟢-New-Prototype-Flow-V2" stroke="none" stroke-width="1" fill="none" fill-rule="evenodd">
        <g id="05-06-Infra" transform="translate(-684.000000, -208.000000)">
            <rect fill="#EEF2F9" x="0" y="0" width="1366" height="768"></rect>
            <g id="Card-Summary" transform="translate(307.000000, 184.000000)">
                <g id="Rectangle">
                    <use fill="black" fill-opacity="1" filter="url(#filter-2)" xlink:href="#path-1"></use>
                    <use fill="#FFFFFF" fill-rule="evenodd" xlink:href="#path-1"></use>
                </g>
                <g id="Icon/24wApp-Server" opacity="0.5" transform="translate(377.000000, 24.000000)">
                    <path d="M32,0 L32,32 L0,32 L0,0 L32,0 Z" id="Vector" opacity="0"></path>
                    <g id="App-Server" transform="translate(2.666667, 1.333333)" fill="#1A1A1A" fill-rule="nonzero">
                        <path d="M22.1409255,2.31655026e-05 L3.96613507,2.31655026e-05 C2.91460402,-0.00357318477 1.90508762,0.411700461 1.16076587,1.15439842 C0.416371307,1.8970454 -0.00144498947,2.90568802 3.75501355e-06,3.95721907 L3.75501355e-06,25.3511901 C-0.000557512124,26.4061435 0.417849465,27.4182085 1.16280471,28.1648603 C1.90800024,28.9115122 2.91919141,29.331877 3.97414479,29.3333333 L22.1598576,29.3333333 C23.2162673,29.3333333 24.2291332,28.9129394 24.9752025,28.1657341 C25.7215631,27.4182085 26.1402532,26.40476 26.139093,25.3486416 L26.1231597,3.96996181 C26.1214531,2.91559095 25.7010546,1.90469105 24.9541042,1.16029649 C24.2071538,0.415901925 23.1954602,-0.00162310839 22.1407253,2.31655026e-05 L22.1409255,2.31655026e-05 Z M24.5407114,18.6365662 L1.59285404,18.6365662 L1.59285404,10.6719886 L24.5348862,10.6719886 L24.5407114,18.6365662 Z M3.96664478,1.59322408 L22.1407071,1.59322408 C22.7730092,1.59134019 23.3800297,1.84050404 23.828283,2.2865 C24.2765362,2.73249596 24.5288498,3.33832231 24.5299857,3.97065356 L24.5336833,9.07969201 L1.59309022,9.07969201 L1.59309022,3.95754674 C1.59140085,3.32837569 1.84113223,2.72448624 2.28684421,2.28052911 C2.73255619,1.83657199 3.33728302,1.58906426 3.96641038,1.59322408 L3.96664478,1.59322408 Z M23.8467781,27.0402224 C23.3996463,27.4902013 22.790951,27.7424931 22.1566537,27.7405284 L3.97458168,27.7405284 L3.9748661,27.7405284 C3.34199601,27.7396519 2.73583471,27.4873542 2.28932904,27.0390864 C1.84276512,26.5911026 1.59246127,25.9838418 1.59358952,25.3512193 L1.59358952,20.2293653 L24.5421828,20.2293653 L24.5459109,25.3494717 C24.548156,25.9840457 24.2964286,26.5927264 23.8467336,27.0401787 L23.8467781,27.0402224 Z" id="Shape"></path>
                        <path d="M10.8159048,7.56640041 L15.2912285,7.56640041 C16.0310357,7.56640041 16.7145564,7.17160115 17.0846056,6.53103444 C17.4543708,5.8904823 17.4543708,5.10086193 17.0846056,4.46030251 C16.7145564,3.81975037 16.0310357,3.42493654 15.2912285,3.42493654 L10.8159048,3.42493654 C10.0760977,3.42493654 9.39257701,3.81973581 9.02281905,4.46030251 C8.65276983,5.10085465 8.65276983,5.89047502 9.02281905,6.53103444 C9.39258429,7.17158658 10.0760977,7.56640041 10.8159048,7.56640041 Z M10.8159048,5.01785207 L15.2912285,5.01785207 C15.5551853,5.01785207 15.7690814,5.23174809 15.7690814,5.49570488 C15.7690814,5.75966168 15.5551853,5.9735577 15.2912285,5.9735577 L10.8159048,5.9735577 C10.5519481,5.9735577 10.338052,5.75966168 10.338052,5.49570488 C10.338052,5.23174809 10.5519481,5.01785207 10.8159048,5.01785207 Z" id="Shape"></path>
                        <path d="M15.2911557,21.8222517 L10.815832,21.8222517 C10.0760249,21.8222517 9.39250419,22.2170509 9.02274623,22.8576176 C8.65269702,23.4981698 8.65269702,24.2877901 9.02274623,24.9283496 C9.39251147,25.5689017 10.0760249,25.9637155 10.815832,25.9637155 L15.2911557,25.9637155 C16.0309629,25.9637155 16.7144836,25.5689163 17.0845328,24.9283496 C17.454298,24.2877974 17.454298,23.4981771 17.0845328,22.8576176 C16.7144836,22.2170655 16.0309629,21.8222517 15.2911557,21.8222517 Z M15.2911557,24.3708 L10.815832,24.3708 C10.5518752,24.3708 10.3379792,24.156904 10.3379792,23.8929472 C10.3379792,23.6289904 10.5518752,23.4150944 10.815832,23.4150944 L15.2911557,23.4150944 C15.5551125,23.4150944 15.7690085,23.6289904 15.7690085,23.8929472 C15.7690085,24.156904 15.5551125,24.3708 15.2911557,24.3708 Z" id="Shape"></path>
                        <path d="M10.8159048,16.725155 L15.2912285,16.725155 C16.0310357,16.725155 16.7145564,16.3303557 17.0846056,15.689789 C17.4543708,15.0492369 17.4543708,14.2596165 17.0846056,13.6190571 C16.7145564,12.9785049 16.0310357,12.5836911 15.2912285,12.5836911 L10.8159048,12.5836911 C10.0760977,12.5836911 9.39257701,12.9784904 9.02281905,13.6190571 C8.65276983,14.2596092 8.65276983,15.0492296 9.02281905,15.689789 C9.39258429,16.3303412 10.0760977,16.725155 10.8159048,16.725155 Z M10.8159048,14.1766066 L15.2912285,14.1766066 C15.5551853,14.1766066 15.7690814,14.3905027 15.7690814,14.6544595 C15.7690814,14.9184163 15.5551853,15.1323123 15.2912285,15.1323123 L10.8159048,15.1323123 C10.5519481,15.1323123 10.338052,14.9184163 10.338052,14.6544595 C10.338052,14.3905027 10.5519481,14.1766066 10.8159048,14.1766066 Z" id="Shape"></path>
                    </g>
                </g>
            </g>
        </g>
    </g>
</svg>