<?xml version="1.0" encoding="UTF-8"?>
<svg width="32px" height="32px" viewBox="0 0 32 32" version="1.1" xmlns="http://www.w3.org/2000/svg" xmlns:xlink="http://www.w3.org/1999/xlink">
    <title>FC43A236-992A-40EC-A7EF-45E501E6F37A</title>
    <defs>
        <rect id="path-1" x="0" y="0" width="1037" height="80" rx="6"></rect>
        <filter x="-0.8%" y="-12.5%" width="101.9%" height="125.0%" filterUnits="objectBoundingBox" id="filter-2">
            <feOffset dx="2" dy="0" in="SourceAlpha" result="shadowOffsetOuter1"></feOffset>
            <feGaussianBlur stdDeviation="3" in="shadowOffsetOuter1" result="shadowBlurOuter1"></feGaussianBlur>
            <feColorMatrix values="0 0 0 0 0.1   0 0 0 0 0.1   0 0 0 0 0.1  0 0 0 0.1 0" type="matrix" in="shadowBlurOuter1"></feColorMatrix>
        </filter>
    </defs>
    <g id="🟢-New-Prototype-Flow-V2" stroke="none" stroke-width="1" fill="none" fill-rule="evenodd">
        <g id="05-06-Infra" transform="translate(-1029.000000, -208.000000)">
            <rect fill="#EEF2F9" x="0" y="0" width="1366" height="768"></rect>
            <g id="Card-Summary" transform="translate(307.000000, 184.000000)">
                <g id="Rectangle">
                    <use fill="black" fill-opacity="1" filter="url(#filter-2)" xlink:href="#path-1"></use>
                    <use fill="#FFFFFF" fill-rule="evenodd" xlink:href="#path-1"></use>
                </g>
                <g id="Icon/24wDatabase-Server" opacity="0.5" transform="translate(722.000000, 24.000000)">
                    <path d="M32,0 L32,32 L0,32 L0,0 L32,0 Z" id="Vector" opacity="0"></path>
                    <g id="noun-database-2231958" transform="translate(2.666667, 1.333333)" fill="#1A1A1A" fill-rule="nonzero">
                        <path d="M13.6659509,0 C17.3224986,0 20.6338081,0.552452381 23.0909509,1.48202381 C24.3195819,1.94682143 25.3382128,2.50345238 26.0864271,3.17285714 C26.8346414,3.8422619 27.3333914,4.67071429 27.3333914,5.58869048 L27.3333914,24.0952381 C27.1683081,24.8964881 26.6009509,25.6919048 26.0864271,26.1597619 C25.3382128,26.8291667 24.3195224,27.3864881 23.0909509,27.8513095 C20.6335105,28.7808929 17.3222605,29.3333333 13.6659509,29.3333333 C10.0096414,29.3333333 6.69749856,28.780881 4.23976047,27.8513095 C3.01112952,27.3865119 1.99249856,26.8291667 1.24428428,26.1597619 C0.621367611,25.5103571 0.163331897,24.8744048 5.68954768e-05,24.0952381 L5.68954768e-05,5.22559524 C-0.00174250764,5.08678571 0.0391801114,4.95052976 0.117069992,4.83543452 C0.304010469,4.21716071 0.707194992,3.65358929 1.2443319,3.17317262 C1.99254618,2.50376786 3.01123666,1.94710119 4.23980809,1.48233929 C6.69724856,0.552755952 10.0092128,0.00031547619 13.6659986,0.00031547619 L13.6659509,0 Z M13.6659509,1.34577381 C10.1479748,1.34577381 6.96535571,1.89078571 4.72130809,2.73994048 C3.59916523,3.1645119 2.71446285,3.6697619 2.1480938,4.17642857 C1.10595094,5.13720238 1.23154618,6.16535714 2.1480938,6.99869048 C2.71449856,7.50533929 3.59922475,8.00988095 4.72130809,8.43446429 C6.96577237,9.28363095 10.1479748,9.82934524 13.6659509,9.82934524 C17.1839271,9.82934524 20.3683319,9.28363095 22.6129748,8.43446429 C23.7351176,8.00989286 24.6205343,7.50535714 25.1869033,6.99869048 C26.23857,6.04005952 26.0264867,4.94232143 25.1869033,4.17642857 C24.6204986,3.66977976 23.7350581,3.16452381 22.6129748,2.73994048 C20.3687486,1.89077381 17.1842248,1.34577381 13.6659509,1.34577381 Z M25.9629748,8.10589286 C25.22732,8.72857143 24.254939,9.25291667 23.0914271,9.69303571 C20.6339867,10.622619 17.3227367,11.1750595 13.6664271,11.1750595 C10.0101176,11.1750595 6.69797475,10.6226071 4.24023666,9.69303571 C3.07672475,9.2528869 2.10481999,8.72857143 1.36940333,8.10589286 L1.36940333,11.3783333 C1.43102237,11.7577976 1.66841523,12.1583929 2.1483319,12.587619 C2.71473666,13.0942679 3.59946285,13.5967262 4.72154618,14.0213095 C6.96601047,14.8704762 10.1482128,15.4182738 13.666189,15.4182738 C17.1841652,15.4182738 20.36857,14.8704702 22.6132128,14.0213095 C23.7353557,13.5967381 24.6207724,13.0942857 25.1871414,12.587619 C25.6630998,12.1618869 25.8991057,11.7645238 25.9632724,11.3878571 L25.9629748,8.10589286 Z M25.9629748,13.6920833 C25.22732,14.315 24.2551771,14.838869 23.0914271,15.2792262 C20.6339867,16.2088095 17.3227367,16.76125 13.6664271,16.76125 C10.0101176,16.76125 6.69797475,16.2087976 4.24023666,15.2792262 C3.07672475,14.8390774 2.10481999,14.3154762 1.36940333,13.6927976 L1.36940333,16.9666071 C1.43102237,17.3456071 1.66818309,17.7443452 2.1483319,18.1738095 C2.71473666,18.6804583 3.59946285,19.1857143 4.72154618,19.6102976 C6.96601047,20.4594643 10.1482128,21.0044643 13.666189,21.0044643 C17.1841652,21.0044643 20.36857,20.4594524 22.6132128,19.6102976 C23.7353557,19.1857262 24.6207724,18.6804762 25.1871414,18.1738095 C25.6628676,17.7483095 25.8991057,17.3527976 25.9632724,16.9768452 L25.9629748,13.6920833 Z M25.9629748,19.2808333 C25.22732,19.9035119 24.2551771,20.427619 23.0914271,20.8679762 C20.6339867,21.7975595 17.3227367,22.35 13.6664271,22.35 C10.0101176,22.35 6.69797475,21.7975476 4.24023666,20.8679762 C3.07672475,20.4278274 2.10481999,19.9042262 1.36940333,19.2815476 L1.36940333,23.9508929 C1.43102237,24.3303571 1.66841523,24.7309524 2.1483319,25.1601786 C2.71473666,25.6668274 3.59946285,26.1685714 4.72154618,26.5931548 C6.96601047,27.4423214 10.1482128,27.9880357 13.666189,27.9880357 C17.1841652,27.9880357 20.36857,27.4423214 22.6132128,26.5931548 C23.7353557,26.1685833 24.6207724,25.6668452 25.1871414,25.1601786 C25.6630998,24.7344464 25.8991057,24.3370833 25.9632724,23.9604167 L25.9629748,19.2808333 Z" id="Shape"></path>
                    </g>
                </g>
            </g>
        </g>
    </g>
</svg>