<?xml version="1.0" encoding="UTF-8"?>
<svg width="72px" height="72px" viewBox="0 0 72 72" version="1.1" xmlns="http://www.w3.org/2000/svg" xmlns:xlink="http://www.w3.org/1999/xlink">
    <title>4520D892-0392-40FA-9D29-11F06E391AF4</title>
    <g id="🟢Updated-Flow_V1" stroke="none" stroke-width="1" fill="none" fill-rule="evenodd">
        <g id="01-00-App-Portal" transform="translate(-1086.000000, -326.000000)">
            <rect fill="#EEF2F9" x="0" y="0" width="1366" height="768"></rect>
            <g id="Team-Management" transform="translate(925.000000, 264.000000)">
                <rect id="Rectangle" fill="#FFFFFF" x="0" y="0" width="393" height="243" rx="4"></rect>
                <g id="Icon/24w/Customer" opacity="0.4" transform="translate(161.000000, 62.000000)">
                    <path d="M72,0 L72,72 L0,72 L0,0 L72,0 Z" id="Vector" opacity="0"></path>
                    <path d="M47.25,3 C58.4957085,3 64.5,9.46616004 64.5,20.25 L64.5,20.25 L64.5,50.25 C64.5,61.03384 58.4957085,67.5 47.25,67.5 L47.25,67.5 L23.25,67.5 C12.0042915,67.5 6,61.03384 6,50.25 L6,50.25 L6,20.25 C6,9.46616004 12.0042915,3 23.25,3 L23.25,3 Z M47.25,7.5 L23.25,7.5 C14.5671371,7.5 10.5,11.8799938 10.5,20.25 L10.5,20.25 L10.5,50.25 C10.5,58.6200062 14.5671371,63 23.25,63 L23.25,63 L47.25,63 C55.9328629,63 60,58.6200062 60,50.25 L60,50.25 L60,20.25 C60,11.8799938 55.9328629,7.5 47.25,7.5 L47.25,7.5 Z M30.8409903,36.6590097 C31.6397899,37.4578094 31.7124081,38.7078005 31.0588447,39.588635 L30.8409903,39.8409903 L26.433,44.25 L30.8409903,48.6590097 C31.6397899,49.4578094 31.7124081,50.7078005 31.0588447,51.588635 L30.8409903,51.8409903 C30.0421906,52.6397899 28.7921995,52.7124081 27.911365,52.0588447 L27.6590097,51.8409903 L21.6590097,45.8409903 C20.8602101,45.0421906 20.7875919,43.7921995 21.4411553,42.911365 L21.6590097,42.6590097 L27.6590097,36.6590097 C28.5376894,35.7803301 29.9623106,35.7803301 30.8409903,36.6590097 Z M42.588635,36.4411553 L42.8409903,36.6590097 L48.8409903,42.6590097 C49.6397899,43.4578094 49.7124081,44.7078005 49.0588447,45.588635 L48.8409903,45.8409903 L42.8409903,51.8409903 C41.9623106,52.7196699 40.5376894,52.7196699 39.6590097,51.8409903 C38.8602101,51.0421906 38.7875919,49.7921995 39.4411553,48.911365 L39.6590097,48.6590097 L44.067,44.25 L39.6590097,39.8409903 C38.8602101,39.0421906 38.7875919,37.7921995 39.4411553,36.911365 L39.6590097,36.6590097 C40.4578094,35.8602101 41.7078005,35.7875919 42.588635,36.4411553 Z M42.75,10.5 C43.8890873,10.5 44.8304729,11.3464616 44.9794602,12.4446883 L45,12.75 L45,18.75 C45,20.6787744 46.4876724,22.2869952 48.3688434,22.4804886 L48.75,22.5 L54.75,22.5 C55.9926407,22.5 57,23.5073593 57,24.75 C57,25.8890873 56.1535384,26.8304729 55.0553117,26.9794602 L54.75,27 L48.75,27 C44.3756052,27 40.775765,23.5621744 40.5151107,19.2511546 L40.5,18.75 L40.5,12.75 C40.5,11.5073593 41.5073593,10.5 42.75,10.5 Z" id="document-code" fill="#0D72FF"></path>
                </g>
            </g>
        </g>
    </g>
</svg>