<?xml version="1.0" encoding="UTF-8"?>
<svg width="24px" height="24px" viewBox="0 0 24 24" version="1.1" xmlns="http://www.w3.org/2000/svg" xmlns:xlink="http://www.w3.org/1999/xlink">
    <title>965A1C79-1AD5-4CCE-8C62-FE8EC6CDC527</title>
    <g id="🟢-New-Prototype-Flow-V2" stroke="none" stroke-width="1" fill="none" fill-rule="evenodd">
        <g id="04-15-Project-Plan" transform="translate(-1310.000000, -156.000000)">
            <rect fill="#EEF2F9" x="0" y="0" width="1366" height="768"></rect>
            <g id="Duration" transform="translate(1051.000000, 148.000000)">
                <g id="Input/40h/text-without-label/active" fill="#FFFFFF" stroke="#CCCCCC">
                    <rect id="input-field" x="0.5" y="0.5" width="290" height="39" rx="4"></rect>
                </g>
                <g id="Icon/24w/calendar" transform="translate(259.000000, 8.000000)">
                    <path d="M24,0 L24,24 L0,24 L0,0 L24,0 Z" id="Vector" opacity="0"></path>
                    <path d="M15.75,1 C16.1296958,1 16.443491,1.28215388 16.4931534,1.64822944 L16.5,1.75 L16.5010655,2.53056267 C19.7652911,2.80435963 21.5,4.9034661 21.5,8.25 L21.5,8.25 L21.5,16.75 C21.5,20.3446133 19.4985695,22.5 15.75,22.5 L15.75,22.5 L7.75,22.5 C4.00143049,22.5 2,20.3446133 2,16.75 L2,16.75 L2,8.25 C2,4.90312766 3.7350598,2.80393507 6.9999249,2.53047965 L7,1.75 C7,1.33578644 7.33578644,1 7.75,1 C8.12969577,1 8.44349096,1.28215388 8.49315338,1.64822944 L8.5,1.75 L8.5,2.5 L15,2.5 L15,1.75 C15,1.33578644 15.3357864,1 15.75,1 Z M20,9.589 L3.5,9.589 L3.5,16.75 C3.5,19.4579432 4.77713734,20.9129672 7.49860987,20.9962144 L7.75,21 L15.75,21 C18.6442876,21 20,19.5400021 20,16.75 L20,16.75 L20,9.589 Z M8.05329396,15.4499512 C8.60557871,15.4499512 9.05329396,15.8976664 9.05329396,16.4499512 C9.05329396,16.962787 8.66725377,17.3854583 8.16991508,17.4432234 L8.05329396,17.4499512 C7.49202727,17.4499512 7.04431202,17.0022359 7.04431202,16.4499512 C7.04431202,15.9371153 7.43035221,15.514444 7.92769089,15.4566789 L8.05329396,15.4499512 Z M11.7544658,12.4499512 C12.3067506,12.4499512 12.7544658,12.8976664 12.7544658,13.4499512 C12.7544658,13.962787 12.3684256,14.3854583 11.871087,14.4432234 L11.7544658,14.4499512 C11.1931991,14.4499512 10.7454839,14.0022359 10.7454839,13.4499512 C10.7454839,12.9371153 11.1315241,12.514444 11.6288628,12.4566789 L11.7544658,12.4499512 Z M8.05329396,12.4499512 C8.60557871,12.4499512 9.05329396,12.8976664 9.05329396,13.4499512 C9.05329396,13.962787 8.66725377,14.3854583 8.16991508,14.4432234 L8.05329396,14.4499512 C7.49202727,14.4499512 7.04431202,14.0022359 7.04431202,13.4499512 C7.04431202,12.9371153 7.43035221,12.514444 7.92769089,12.4566789 L8.05329396,12.4499512 Z M15,4 L8.5,4 L8.5,4.75 C8.5,5.16421356 8.16421356,5.5 7.75,5.5 C7.37030423,5.5 7.05650904,5.21784612 7.00684662,4.85177056 L7,4.75 L7.0003221,4.03593266 C4.62094612,4.27577563 3.5,5.71304295 3.5,8.25 L3.502,8.089 L19.9984542,8.08841142 C19.9513841,5.65234498 18.8283898,4.27103799 16.5006949,4.03603526 L16.5,4.75 C16.5,5.16421356 16.1642136,5.5 15.75,5.5 C15.3703042,5.5 15.056509,5.21784612 15.0068466,4.85177056 L15,4.75 L15,4 Z" id="calendar" fill="#758CAB"></path>
                </g>
            </g>
        </g>
    </g>
</svg>