<?xml version="1.0" encoding="UTF-8"?>
<svg width="24px" height="24px" viewBox="0 0 24 24" version="1.1" xmlns="http://www.w3.org/2000/svg" xmlns:xlink="http://www.w3.org/1999/xlink">
    <title>Icon/24w/check_square</title>
    <g id="Icon/24w/check_square" stroke="none" stroke-width="1" fill="none" fill-rule="evenodd">
        <path d="M24,0 L24,24 L0,24 L0,0 L24,0 Z" id="Vector" opacity="0"></path>
        <path d="M14.75,1 C20.1642136,1 22.5,3.33578644 22.5,8.75 L22.5,8.75 L22.5,14.75 C22.5,20.1642136 20.1642136,22.5 14.75,22.5 L14.75,22.5 L8.75,22.5 C3.33578644,22.5 1,20.1642136 1,14.75 L1,14.75 L1,8.75 C1,3.33578644 3.33578644,1 8.75,1 L8.75,1 Z M14.75,2.5 L8.48360813,2.50192899 C4.09959012,2.56638653 2.5,4.25413094 2.5,8.75 L2.5,8.75 L2.50192899,15.0163919 C2.56638653,19.4004099 4.25413094,21 8.75,21 L8.75,21 L14.75,21 C19.3357864,21 21,19.3357864 21,14.75 L21,14.75 L21,8.75 C21,4.16421356 19.3357864,2.5 14.75,2.5 L14.75,2.5 Z M16.530798,8.39018215 C16.7968294,8.65668363 16.8206677,9.07336851 16.6025542,9.36678761 L16.5298618,9.45084191 L10.8598617,15.1108418 C10.5935266,15.3767072 10.177155,15.4007037 9.88373447,15.1829518 L9.79966984,15.1103739 L6.96966991,12.280374 C6.6767767,11.9874807 6.6767767,11.512607 6.96966991,11.2197138 C7.23593648,10.9534472 7.65260016,10.9292412 7.94621165,11.1470956 L8.03033009,11.2197138 L10.33,13.519 L15.4701382,8.38924598 C15.7632898,8.09661139 16.2381634,8.09703053 16.530798,8.39018215 Z" id="Combined-Shape" fill="#1A1A1A"></path>
    </g>
</svg>