<?xml version="1.0" encoding="UTF-8"?>
<svg width="20px" height="20px" viewBox="0 0 20 20" version="1.1" xmlns="http://www.w3.org/2000/svg" xmlns:xlink="http://www.w3.org/1999/xlink">
    <title>182319B9-ED69-48D3-904B-8106B16676CB</title>
    <defs>
        <rect id="path-1" x="307" y="136" width="752" height="538" rx="8"></rect>
        <filter x="-1.1%" y="-1.9%" width="102.7%" height="103.7%" filterUnits="objectBoundingBox" id="filter-2">
            <feOffset dx="2" dy="0" in="SourceAlpha" result="shadowOffsetOuter1"></feOffset>
            <feGaussianBlur stdDeviation="3" in="shadowOffsetOuter1" result="shadowBlurOuter1"></feGaussianBlur>
            <feColorMatrix values="0 0 0 0 0.1   0 0 0 0 0.1   0 0 0 0 0.1  0 0 0 0.1 0" type="matrix" in="shadowBlurOuter1"></feColorMatrix>
        </filter>
    </defs>
    <g id="🟢-New-Prototype-Flow-V2" stroke="none" stroke-width="1" fill="none" fill-rule="evenodd">
        <g id="04-03-Add-drivers" transform="translate(-331.000000, -267.000000)">
            <rect fill="#EEF2F9" x="0" y="0" width="1366" height="768"></rect>
            <g id="Card_bg">
                <use fill="black" fill-opacity="1" filter="url(#filter-2)" xlink:href="#path-1"></use>
                <use fill="#FFFFFF" fill-rule="evenodd" xlink:href="#path-1"></use>
            </g>
            <g id="Icon/24w/checkbox" transform="translate(331.000000, 267.000000)">
                <path d="M20,0 L20,20 L0,20 L0,0 L20,0 Z" id="Vector" opacity="0"></path>
                <path d="M12.5,1.04166667 L7.5,1.04166667 C2.98815536,1.04166667 1.04166667,2.98815536 1.04166667,7.5 L1.04166667,12.5 C1.04166667,17.0118446 2.98815536,18.9583333 7.5,18.9583333 L12.5,18.9583333 C17.0118446,18.9583333 18.9583333,17.0118446 18.9583333,12.5 L18.9583333,7.5 C18.9583333,2.98815536 17.0118446,1.04166667 12.5,1.04166667 Z M12.5,2.29166667 C16.3214887,2.29166667 17.7083333,3.6785113 17.7083333,7.5 L17.7083333,12.5 C17.7083333,16.3214887 16.3214887,17.7083333 12.5,17.7083333 L7.5,17.7083333 C3.75344245,17.7083333 2.34698877,16.3753416 2.29327416,12.7219932 L2.29166667,7.5 C2.29166667,3.75344245 3.62465843,2.34698877 7.27800677,2.29327416 L12.5,2.29166667 Z" id="Combined-Shape" fill="#808080"></path>
            </g>
        </g>
    </g>
</svg>