<?xml version="1.0" encoding="UTF-8"?>
<svg width="20px" height="20px" viewBox="0 0 20 20" version="1.1" xmlns="http://www.w3.org/2000/svg" xmlns:xlink="http://www.w3.org/1999/xlink">
    <title>DB6AF21D-2510-4865-80DF-C29EFC0D9253</title>
    <g id="🟢-New-Prototype-Flow-V2" stroke="none" stroke-width="1" fill="none" fill-rule="evenodd">
        <g id="03-01-Project-list" transform="translate(-1084.000000, -138.000000)">
            <rect fill="#EEF2F9" x="0" y="0" width="1366" height="768"></rect>
            <g id="Page-/-sub-header" transform="translate(96.000000, 120.000000)">
                <g id="Group" transform="translate(980.000000, 10.000000)">
                    <rect id="Rectangle" stroke="#758CAB" opacity="0.5" x="0.5" y="0.5" width="35" height="35" rx="4"></rect>
                    <g id="Nav-bar-/-Menu-/-inactive">
                        <rect id="Rectangle" fill="#758CAB" opacity="0" x="0" y="0" width="36" height="36"></rect>
                        <g id="icon/24w/dashboard" transform="translate(8.000000, 8.000000)">
                            <path d="M20,0 L20,20 L0,20 L0,0 L20,0 Z" id="Vector" opacity="0"></path>
                            <path d="M15.3129494,1.12497965 C16.5570345,1.12497965 17.5723624,2.14030759 17.5723624,3.38439261 L17.5723624,3.38439261 L17.5723624,5.19192321 C17.5723624,5.97965008 17.1260299,6.96158143 16.5426027,7.54335314 L16.5426027,7.54335314 L12.9961368,10.6770918 C12.6659236,10.9522695 12.3962518,11.5879249 12.3962518,12.0934029 L12.3962518,12.0934029 L12.3962518,15.6263025 C12.3962518,16.3405795 11.9520804,17.1947561 11.373821,17.5413683 L11.373821,17.5413683 L10.2133087,18.2872699 C8.72122056,19.2054781 6.72717959,18.1474151 6.72717959,16.3657464 L6.72717959,16.3657464 L6.72717959,12.0112421 C6.72717959,11.6275311 6.4840581,11.019727 6.23935241,10.7102818 L6.23935241,10.7102818 L3.01885944,7.31833008 C2.55350681,6.78913438 2.20835368,5.97498191 2.20835368,5.356244 L2.20835368,5.356244 L2.20835368,3.466553 C2.20835368,2.1576434 3.20659537,1.12497965 4.46776663,1.12497965 L4.46776663,1.12497965 Z M15.3129494,2.35738672 L9.35235368,2.35697965 L5.64535368,8.29797965 L7.16727371,9.90093257 C7.57080023,10.4053407 7.89544626,11.171101 7.95113788,11.8203429 L7.95958666,12.0112421 L7.95958666,16.3657464 C7.95958666,17.1679409 8.88381889,17.65835 9.55714134,17.2441379 L9.55714134,17.2441379 L10.7235702,16.494641 C10.9316257,16.3698077 11.1638447,15.9232322 11.1638447,15.6263025 L11.1638447,15.6263025 L11.1638447,12.0934029 C11.1638447,11.237364 11.5822671,10.2510821 12.1936044,9.74197176 L12.1936044,9.74197176 L15.6988325,6.64589211 C16.0331501,6.31157448 16.3399553,5.63660301 16.3399553,5.19192321 L16.3399553,5.19192321 L16.3399553,3.38439261 C16.3399553,2.82094722 15.8763948,2.35738672 15.3129494,2.35738672 L15.3129494,2.35738672 Z M7.89935368,2.35697965 L4.46776663,2.35738672 C3.89675931,2.35738672 3.44076075,2.82910934 3.44076075,3.466553 L3.44076075,3.466553 L3.44076075,5.356244 C3.44076075,5.68215638 3.70288375,6.26689224 4.01074871,6.57504353 L4.01074871,6.57504353 L4.76835368,7.37397965 L7.89935368,2.35697965 Z" id="Combined-Shape" fill="#758CAB"></path>
                        </g>
                    </g>
                </g>
            </g>
        </g>
    </g>
</svg>