<?xml version="1.0" encoding="UTF-8"?>
<svg width="20px" height="20px" viewBox="0 0 20 20" version="1.1" xmlns="http://www.w3.org/2000/svg" xmlns:xlink="http://www.w3.org/1999/xlink">
    <title>756DAB53-CF09-488F-9677-BC7FC9C83F0A</title>
    <g id="🟢-New-Prototype-Flow-V2" stroke="none" stroke-width="1" fill="none" fill-rule="evenodd">
        <g id="03-01-Project-list" transform="translate(-1167.000000, -138.000000)">
            <rect fill="#EEF2F9" x="0" y="0" width="1366" height="768"></rect>
            <g id="Page-/-sub-header" transform="translate(96.000000, 120.000000)">
                <path d="M1098.5,10.5 L1098.5,45.5 L1066,45.5 C1065.30964,45.5 1064.68464,45.220178 1064.23223,44.767767 C1063.77982,44.3153559 1063.5,43.6903559 1063.5,43 L1063.5,43 L1063.5,13 C1063.5,12.3096441 1063.77982,11.6846441 1064.23223,11.232233 C1064.68464,10.779822 1065.30964,10.5 1066,10.5 L1066,10.5 L1098.5,10.5 Z" id="Rectangle" stroke="#B1BED2" fill="#D8DFEB" transform="translate(1081.000000, 28.000000) rotate(180.000000) translate(-1081.000000, -28.000000) "></path>
                <g id="Icon/24w/Grid" opacity="0.699999988" transform="translate(1071.000000, 18.000000)">
                    <path d="M20,0 L20,20 L0,20 L0,0 L20,0 Z" id="Vector" opacity="0"></path>
                    <path d="M12.3257694,1.04166667 C16.837614,1.04166667 18.7841027,2.98815536 18.7841027,7.5 L18.7841027,7.5 L18.7841027,12.5 C18.7841027,16.7416298 17.0637831,18.715981 13.1089425,18.9372552 C13.0589446,18.9512511 13.0056841,18.9583333 12.9507694,18.9583333 C12.9138186,18.9583333 12.8776168,18.9551268 12.8424271,18.9489767 L12.5988047,18.955896 L12.5988047,18.955896 L12.3257694,18.9583333 L7.32576938,18.9583333 C2.81392474,18.9583333 0.867436045,17.0118446 0.867436045,12.5 L0.867436045,12.5 L0.867436045,7.5 C0.867436045,3.25907853 2.58718112,1.28467844 6.54061524,1.06285575 C6.59190255,1.04884122 6.64549811,1.04166667 6.70076938,1.04166667 C6.73664388,1.04166667 6.77181244,1.04468918 6.8060343,1.05049343 L7.05273409,1.04410402 L7.05273409,1.04410402 L7.32576938,1.04166667 Z M12.325436,10.6246667 L7.32543605,10.6246667 L7.32576938,17.7083333 L12.3257694,17.7083333 L12.3257694,17.7083333 L12.325436,10.6246667 Z M17.533436,10.6246667 L13.575436,10.6246667 L13.5766247,17.6488871 C16.3822511,17.355397 17.4785846,15.9449619 17.5320366,12.7511705 L17.5341027,12.5 L17.533436,10.6246667 Z M6.07543605,10.6246667 L2.11843605,10.6246667 L2.11904353,12.7219932 C2.16630542,15.9364653 3.26081926,17.3545836 6.07514867,17.6489117 L6.07543605,10.6246667 Z M6.07518887,2.35108413 C3.19685784,2.65209293 2.11743605,4.12856908 2.11743605,7.5 L2.11743605,7.5 L2.11743605,9.37466667 L6.07543605,9.37466667 Z M12.3257694,2.29166667 L7.32543605,2.29266667 L7.32543605,9.37466667 L12.325436,9.37466667 L12.3257694,2.29166667 Z M13.5766247,2.35111287 L13.575436,9.37466667 L17.533436,9.37466667 L17.5341027,7.5 C17.5341027,4.12867638 16.4547496,2.65218692 13.5766247,2.35111287 Z" id="Combined-Shape" fill="#758CAB"></path>
                </g>
            </g>
        </g>
    </g>
</svg>