<?xml version="1.0" encoding="UTF-8"?>
<svg width="20px" height="20px" viewBox="0 0 20 20" version="1.1" xmlns="http://www.w3.org/2000/svg" xmlns:xlink="http://www.w3.org/1999/xlink">
    <title>707E854C-19A6-4DEF-A5ED-67E472EA3E92</title>
    <g id="🟢-New-Prototype-Flow-V2" stroke="none" stroke-width="1" fill="none" fill-rule="evenodd">
        <g id="03-01-Project-list" transform="translate(-1132.000000, -138.000000)">
            <rect fill="#EEF2F9" x="0" y="0" width="1366" height="768"></rect>
            <g id="Page-/-sub-header" transform="translate(96.000000, 120.000000)">
                <path d="M1063.5,10.5 L1063.5,45.5 L1031,45.5 C1030.30964,45.5 1029.68464,45.220178 1029.23223,44.767767 C1028.77982,44.3153559 1028.5,43.6903559 1028.5,43 L1028.5,43 L1028.5,13 C1028.5,12.3096441 1028.77982,11.6846441 1029.23223,11.232233 C1029.68464,10.779822 1030.30964,10.5 1031,10.5 L1031,10.5 L1063.5,10.5 Z" id="Rectangle" stroke="#B1BED2" fill="#FFFFFF"></path>
                <g id="Icon/24w/list" transform="translate(1036.000000, 18.000000)">
                    <path d="M20,0 L20,20 L0,20 L0,0 L20,0 Z" id="Vector" opacity="0"></path>
                    <path d="M12.2916667,0.833333333 C16.8035113,0.833333333 18.75,2.77982203 18.75,7.29166667 L18.75,7.29166667 L18.75,12.2916667 C18.75,16.8035113 16.8035113,18.75 12.2916667,18.75 L12.2916667,18.75 L7.29166667,18.75 C2.77982203,18.75 0.833333333,16.8035113 0.833333333,12.2916667 L0.833333333,12.2916667 L0.833333333,7.29166667 C0.833333333,2.77982203 2.77982203,0.833333333 7.29166667,0.833333333 L7.29166667,0.833333333 L12.2916667,0.833333333 Z M12.2916667,2.08333333 L7.06967344,2.08494083 C3.4163251,2.13865544 2.08333333,3.54510912 2.08333333,7.29166667 L2.08333333,7.29166667 L2.08494083,12.5136599 C2.13865544,16.1670083 3.54510912,17.5 7.29166667,17.5 L7.29166667,17.5 L12.2916667,17.5 C16.1131553,17.5 17.5,16.1131553 17.5,12.2916667 L17.5,12.2916667 L17.5,7.29166667 C17.5,3.47017797 16.1131553,2.08333333 12.2916667,2.08333333 L12.2916667,2.08333333 Z M12.9166667,11.6666667 C13.2618447,11.6666667 13.5416667,11.9464887 13.5416667,12.2916667 C13.5416667,12.6080798 13.3065384,12.8695758 13.0014755,12.9109612 L12.9166667,12.9166667 L6.66666667,12.9166667 C6.3214887,12.9166667 6.04166667,12.6368447 6.04166667,12.2916667 C6.04166667,11.9752535 6.2767949,11.7137575 6.58185787,11.6723722 L6.66666667,11.6666667 L12.9166667,11.6666667 Z M12.9166667,6.66666667 C13.2618447,6.66666667 13.5416667,6.9464887 13.5416667,7.29166667 C13.5416667,7.60807981 13.3065384,7.8695758 13.0014755,7.91096115 L12.9166667,7.91666667 L6.66666667,7.91666667 C6.3214887,7.91666667 6.04166667,7.63684463 6.04166667,7.29166667 C6.04166667,6.97525353 6.2767949,6.71375753 6.58185787,6.67237218 L6.66666667,6.66666667 L12.9166667,6.66666667 Z" id="Combined-Shape" fill="#0D72FF"></path>
                </g>
            </g>
        </g>
    </g>
</svg>