<?xml version="1.0" encoding="UTF-8"?>
<svg width="72px" height="72px" viewBox="0 0 72 72" version="1.1" xmlns="http://www.w3.org/2000/svg" xmlns:xlink="http://www.w3.org/1999/xlink">
    <title>F1B2E4DB-7A7D-4C73-99D7-557592F65C30</title>
    <defs>
        <rect id="path-1" x="0" y="0" width="393" height="243" rx="4"></rect>
        <filter x="-2.0%" y="-4.1%" width="105.1%" height="108.2%" filterUnits="objectBoundingBox" id="filter-2">
            <feOffset dx="2" dy="0" in="SourceAlpha" result="shadowOffsetOuter1"></feOffset>
            <feGaussianBlur stdDeviation="3" in="shadowOffsetOuter1" result="shadowBlurOuter1"></feGaussianBlur>
            <feColorMatrix values="0 0 0 0 0.1   0 0 0 0 0.1   0 0 0 0 0.1  0 0 0 0.1 0" type="matrix" in="shadowBlurOuter1"></feColorMatrix>
        </filter>
    </defs>
    <g id="🟢Updated-Flow_V1" stroke="none" stroke-width="1" fill="none" fill-rule="evenodd">
        <g id="01-00-App-Portal" transform="translate(-208.000000, -327.000000)">
            <rect fill="#EEF2F9" x="0" y="0" width="1366" height="768"></rect>
            <g id="Customer-Management" transform="translate(48.000000, 264.000000)">
                <g id="Rectangle">
                    <use fill="black" fill-opacity="1" filter="url(#filter-2)" xlink:href="#path-1"></use>
                    <use fill="#FFFFFF" fill-rule="evenodd" xlink:href="#path-1"></use>
                </g>
                <g id="Icon/24w/Customer" transform="translate(160.000000, 63.000000)">
                    <path d="M72,0 L72,72 L0,72 L0,0 L72,0 Z" id="Vector" opacity="0"></path>
                    <path d="M41.2152132,3.00053252 C41.7842487,2.98813858 42.3685167,3.19157932 42.8409903,3.66405295 L42.8409903,3.66405295 L66.8409903,27.664053 C67.2885969,28.1116596 67.4947446,28.6596023 67.5041712,29.1998743 L67.5,29.2550432 L67.5,36.7550432 C67.5,37.997684 66.4926408,39.0050432 65.25,39.0050432 C64.1109126,39.0050432 63.169527,38.1585815 63.0205398,37.060355 L63,36.7550432 L63,31.5035324 L53.25,31.5050432 C43.2571797,31.5050432 39.1991901,27.6907809 39.0071841,17.9934093 L39,17.2550432 L38.997,7.50353251 L26.25,7.50504322 C12.7623928,7.50504322 7.69915959,12.3038136 7.50578697,25.4558676 L7.5,44.2550432 C7.5,57.7426505 12.2987704,62.8058837 25.4508244,62.9992562 L26.25,63.0050432 L35.25,63.0050432 C36.4926408,63.0050432 37.5,64.0124024 37.5,65.2550432 C37.5,66.3941306 36.6535383,67.3355162 35.5553118,67.4845034 L35.25,67.5050432 L26.25,67.5050432 C10.30268,67.5050432 3.25786605,60.7501805 3.00696285,45.1318598 L3,44.2550432 L3,26.2550432 C3,10.3077233 9.75486273,3.26290927 25.3731833,3.01200607 L26.25,3.00504322 L41.2152132,3.00053252 Z M64.7630346,44.8203521 C66.5030346,46.5603521 67.2830325,48.3903743 67.1030325,50.2803743 C66.9530325,51.7803743 66.1730346,53.2203488 64.7630346,54.6603488 L54.1431015,65.2803743 C53.3931015,66.0303743 52.1330427,66.6604022 51.0830427,66.8104022 L47.0330241,67.3804097 C46.7930241,67.4104097 46.5830826,67.4403767 46.3430826,67.4403767 C45.2030826,67.4403767 44.1230826,67.0203965 43.3430829,66.2403965 C42.4130829,65.3103965 41.9930682,63.9603635 42.2030682,62.5503635 L42.7730754,58.5003452 C42.9230754,57.4503452 43.5531048,56.1903782 44.3031048,55.4403782 L53.3588019,46.3836062 L53.4088557,46.3318319 L53.4088557,46.3318319 L54.9230385,44.8203521 C56.3630385,43.3803521 57.7731042,42.6303557 59.3031042,42.4803557 C61.1631042,42.3003557 63.0230349,43.0803521 64.7630346,44.8203521 Z M54.3069675,51.797576 L47.4830973,58.6203707 C47.3930973,58.7103707 47.243046,59.0104109 47.243046,59.1304109 L46.7030679,62.8804109 L50.4530685,62.3403416 C50.5730685,62.3103416 50.8730172,62.1603524 50.9630172,62.0703524 L57.7675776,55.265378 C56.3897943,54.3612569 55.2082686,53.1773339 54.3069675,51.797576 Z M32.25,48.0050432 C33.4926408,48.0050432 34.5,49.0124024 34.5,50.2550432 C34.5,51.3941306 33.6535383,52.3355162 32.5553118,52.4845034 L32.25,52.5050432 L20.25,52.5050432 C19.0073593,52.5050432 18,51.497684 18,50.2550432 C18,49.1159558 18.8464616,48.1745702 19.9446883,48.025583 L20.25,48.0050432 L32.25,48.0050432 Z M59.8130529,46.9504181 L59.7230568,46.9504181 C59.3030568,46.9804181 58.733031,47.3703449 58.103031,48.0003449 L57.5977155,48.504413 C58.3256715,50.0148701 59.556873,51.242948 61.0695723,51.9668981 L61.5830421,51.4504181 C62.2130421,50.7904184 62.6030604,50.2503926 62.6330604,49.8303926 C62.6930604,49.2303926 62.0930421,48.5103449 61.5830421,48.0003449 C61.1030421,47.5203449 60.4130529,46.9504181 59.8130529,46.9504181 Z M38.25,36.0050432 C39.4926408,36.0050432 40.5,37.0124024 40.5,38.2550432 C40.5,39.3941306 39.6535383,40.3355162 38.5553118,40.4845034 L38.25,40.5050432 L20.25,40.5050432 C19.0073593,40.5050432 18,39.497684 18,38.2550432 C18,37.1159558 18.8464616,36.1745702 19.9446883,36.025583 L20.25,36.0050432 L38.25,36.0050432 Z M43.5,10.6880432 L43.5052764,17.9252187 C43.6188657,24.9159562 45.599151,26.8899147 52.5991131,27.0000753 L52.5991131,27.0000753 L53.25,27.0050432 L59.817,27.0050432 L43.5,10.6880432 Z" id="Combined-Shape" fill="#0D72FF"></path>
                </g>
            </g>
        </g>
    </g>
</svg>