<?xml version="1.0" encoding="UTF-8"?>
<svg width="24px" height="24px" viewBox="0 0 24 24" version="1.1" xmlns="http://www.w3.org/2000/svg" xmlns:xlink="http://www.w3.org/1999/xlink">
    <title>Icon/24w/Radio on</title>
    <g id="Icon/24w/Radio-on" stroke="none" stroke-width="1" fill="none" fill-rule="evenodd">
        <path d="M24,0 L24,24 L0,24 L0,0 L24,0 Z" id="Vector" opacity="0"></path>
        <path d="M12,1.25 C6.08578644,1.25 1.25,6.08578644 1.25,12 C1.25,17.9142136 6.08578644,22.75 12,22.75 C17.9142136,22.75 22.75,17.9142136 22.75,12 C22.75,6.08578644 17.9142136,1.25 12,1.25 Z M12,2.75 C17.0857864,2.75 21.25,6.91421356 21.25,12 C21.25,17.0857864 17.0857864,21.25 12,21.25 C6.91421356,21.25 2.75,17.0857864 2.75,12 C2.75,6.91421356 6.91421356,2.75 12,2.75 Z M12,17.75 C15.1756373,17.75 17.75,15.1756373 17.75,12 C17.75,8.82436269 15.1756373,6.25 12,6.25 C8.82436269,6.25 6.25,8.82436269 6.25,12 C6.25,15.1756373 8.82436269,17.75 12,17.75 Z" id="close" fill="#1A1A1A"></path>
    </g>
</svg>