<?xml version="1.0" encoding="UTF-8"?>
<svg width="20px" height="20px" viewBox="0 0 20 20" version="1.1" xmlns="http://www.w3.org/2000/svg" xmlns:xlink="http://www.w3.org/1999/xlink">
    <title>D766C57B-9F6A-43A7-8AD9-48B29119A0E4</title>
    <g id="🟢-New-Prototype-Flow-V2" stroke="none" stroke-width="1" fill="none" fill-rule="evenodd">
        <g id="03-01-Project-list" transform="translate(-320.000000, -138.000000)">
            <rect fill="#EEF2F9" x="0" y="0" width="1366" height="768"></rect>
            <g id="Page-/-sub-header" transform="translate(96.000000, 120.000000)">
                <g id="Search" transform="translate(0.000000, 10.000000)">
                    <rect id="Rectangle" stroke-opacity="0.5" stroke="#B1BED2" fill="#FFFFFF" x="0.5" y="0.5" width="259" height="35" rx="4"></rect>
                    <g id="Icon/24w/search" transform="translate(224.000000, 8.000000)">
                        <path d="M20,0 L20,20 L0,20 L0,0 L20,0 Z" id="Vector" opacity="0"></path>
                        <path d="M17.0385097,16.1642098 L17.1086084,16.2247249 L18.7752751,17.8913916 C19.0193528,18.1354693 19.0193528,18.5311974 18.7752751,18.7752751 C18.5533863,18.9971639 18.2061665,19.0173356 17.9614903,18.8357902 L17.8913916,18.7752751 L16.2247249,17.1086084 C15.9806472,16.8645307 15.9806472,16.4688026 16.2247249,16.2247249 C16.4466137,16.0028361 16.7938335,15.9826644 17.0385097,16.1642098 Z M9.58333333,1.04166667 C14.3007655,1.04166667 18.125,4.86590115 18.125,9.58333333 C18.125,14.3007655 14.3007655,18.125 9.58333333,18.125 C4.86590115,18.125 1.04166667,14.3007655 1.04166667,9.58333333 C1.04166667,4.86590115 4.86590115,1.04166667 9.58333333,1.04166667 Z M9.58333333,2.29166667 C5.55625709,2.29166667 2.29166667,5.55625709 2.29166667,9.58333333 C2.29166667,13.6104096 5.55625709,16.875 9.58333333,16.875 C13.6104096,16.875 16.875,13.6104096 16.875,9.58333333 C16.875,5.55625709 13.6104096,2.29166667 9.58333333,2.29166667 Z" id="Combined-Shape" fill="#758CAB"></path>
                    </g>
                </g>
            </g>
        </g>
    </g>
</svg>