<?xml version="1.0" encoding="UTF-8"?>
<svg width="72px" height="72px" viewBox="0 0 72 72" version="1.1" xmlns="http://www.w3.org/2000/svg" xmlns:xlink="http://www.w3.org/1999/xlink">
    <title>EBBB91B1-BE02-4171-B789-90460365B236</title>
    <g id="🟢Updated-Flow_V1" stroke="none" stroke-width="1" fill="none" fill-rule="evenodd">
        <g id="01-00-App-Portal" transform="translate(-648.000000, -326.000000)">
            <rect fill="#EEF2F9" x="0" y="0" width="1366" height="768"></rect>
            <g id="Team-Management" transform="translate(487.000000, 264.000000)">
                <rect id="Rectangle" fill="#FFFFFF" x="0" y="0" width="393" height="243" rx="4"></rect>
                <g id="Icon/24w/Customer" opacity="0.4" transform="translate(161.000000, 62.000000)">
                    <path d="M72,0 L72,72 L0,72 L0,0 L72,0 Z" id="Vector" opacity="0"></path>
                    <g id="send-square" transform="translate(3.000000, 3.000000)" fill="#0D72FF" fill-rule="nonzero">
                        <path d="M42.2093023,0 L23.7906977,0 C7.17032116,0 0,7.17032116 0,23.7906977 L0,42.2093023 C0,58.8296788 7.17032116,66 23.7906977,66 L42.2093023,66 C58.8296788,66 66,58.8296788 66,42.2093023 L66,23.7906977 C66,7.17032116 58.8296788,0 42.2093023,0 Z M42.2093023,4.60465116 C56.2866002,4.60465116 61.3953488,9.71339977 61.3953488,23.7906977 L61.3953488,42.2093023 C61.3953488,56.2866002 56.2866002,61.3953488 42.2093023,61.3953488 L23.7906977,61.3953488 C9.98942522,61.3953488 4.80844236,56.4849792 4.6105727,43.0270634 L4.60465116,23.7906977 C4.60465116,9.98942522 9.51502084,4.80844236 22.9729366,4.6105727 L42.2093023,4.60465116 Z" id="Vector"></path>
                        <g id="Group" transform="translate(21.488372, 13.844681)">
                            <path d="M12.8813939,0.451414707 L13.1396179,0.67433555 L22.3489203,9.88363788 C23.2480343,10.7827519 23.2480343,12.2405039 22.3489203,13.1396179 C21.5315438,13.9569944 20.2524832,14.0313013 19.3511642,13.3625388 L19.0929402,13.1396179 L14.605,8.653 L14.6053779,26.8604636 C14.6053779,28.5690945 13.2202589,29.9542136 11.5116279,29.9542136 C9.94538287,29.9542136 8.65097769,28.7903288 8.4461202,27.2802671 L8.41787791,26.8604636 L8.417,8.653 L3.93031561,13.1396179 C3.11293919,13.9569944 1.83387858,14.0313013 0.932559577,13.3625388 L0.67433555,13.1396179 C-0.143040874,12.3222415 -0.217347822,11.0431809 0.451414707,10.1418619 L0.67433555,9.88363788 L9.88363788,0.67433555 C10.7010143,-0.143040874 11.9800749,-0.217347822 12.8813939,0.451414707 Z" id="Combined-Shape"></path>
                        </g>
                        <path d="M50.6888616,44.6610653 C51.8948393,44.2580393 53.1991945,44.9089604 53.6022205,46.1149381 C54.0052465,47.3209158 53.3543254,48.625271 52.1483477,49.028297 C39.7333306,53.1772742 26.2666694,53.1772742 13.8516523,49.028297 C12.6456746,48.625271 11.9947535,47.3209158 12.3977795,46.1149381 C12.8008055,44.9089604 14.1051607,44.2580393 15.3111384,44.6610653 C26.7789126,48.4934832 39.2210874,48.4934832 50.6888616,44.6610653 Z" id="Vector"></path>
                    </g>
                </g>
            </g>
        </g>
    </g>
</svg>