<?xml version="1.0" encoding="UTF-8"?>
<svg width="32px" height="32px" viewBox="0 0 32 32" version="1.1" xmlns="http://www.w3.org/2000/svg" xmlns:xlink="http://www.w3.org/1999/xlink">
    <title>933618BD-DC22-425E-B783-AB3C9309A373</title>
    <defs>
        <rect id="path-1" x="0" y="0" width="1037" height="80" rx="6"></rect>
        <filter x="-0.8%" y="-12.5%" width="101.9%" height="125.0%" filterUnits="objectBoundingBox" id="filter-2">
            <feOffset dx="2" dy="0" in="SourceAlpha" result="shadowOffsetOuter1"></feOffset>
            <feGaussianBlur stdDeviation="3" in="shadowOffsetOuter1" result="shadowBlurOuter1"></feGaussianBlur>
            <feColorMatrix values="0 0 0 0 0.1   0 0 0 0 0.1   0 0 0 0 0.1  0 0 0 0.1 0" type="matrix" in="shadowBlurOuter1"></feColorMatrix>
        </filter>
    </defs>
    <g id="🟢-New-Prototype-Flow-V2" stroke="none" stroke-width="1" fill="none" fill-rule="evenodd">
        <g id="05-06-Infra" transform="translate(-339.000000, -208.000000)">
            <rect fill="#EEF2F9" x="0" y="0" width="1366" height="768"></rect>
            <g id="Card-Summary" transform="translate(307.000000, 184.000000)">
                <g id="Rectangle">
                    <use fill="black" fill-opacity="1" filter="url(#filter-2)" xlink:href="#path-1"></use>
                    <use fill="#FFFFFF" fill-rule="evenodd" xlink:href="#path-1"></use>
                </g>
                <g id="Icon/24w/Web-Server" opacity="0.5" transform="translate(32.000000, 24.000000)">
                    <path d="M32,0 L32,32 L0,32 L0,0 L32,0 Z" id="Vector" opacity="0"></path>
                    <g id="Web-Server" transform="translate(4.000000, 1.333333)" fill="#1A1A1A" fill-rule="nonzero">
                        <path d="M15.5423906,3.03828535 C15.1493091,3.03828535 14.8304425,3.35711942 14.8304425,3.75023355 L14.8304425,5.9195341 C14.8304425,6.31286953 15.1492765,6.6314823 15.5423906,6.6314823 C15.9355048,6.6314823 16.2543388,6.31290208 16.2543388,5.9195341 L16.2543388,3.75023355 C16.2543388,3.56157834 16.1793363,3.38054511 16.0458509,3.24680586 C15.9123655,3.11332045 15.7313388,3.03828535 15.5424232,3.03828535 L15.5423906,3.03828535 Z" id="Path"></path>
                        <path d="M20.0986508,3.03828535 C19.7055692,3.03828535 19.3867026,3.35711942 19.3867026,3.75023355 L19.3867026,5.9195341 C19.3867026,6.31286953 19.7055367,6.6314823 20.0986508,6.6314823 C20.4917649,6.6314823 20.810599,6.31290208 20.810599,5.9195341 L20.810599,3.75023355 C20.810599,3.56157834 20.7355965,3.38054511 20.602111,3.24680586 C20.4686256,3.11332045 20.2875989,3.03828535 20.0986834,3.03828535 L20.0986508,3.03828535 Z" id="Path"></path>
                        <path d="M5.18731308,2.52590135 C4.57506888,2.52590135 3.98771487,2.76922517 3.55473997,3.20224563 C3.12174555,3.6349862 2.8783957,4.22232719 2.8783957,4.83455838 C2.8783957,5.44706294 3.12171952,6.03415659 3.55473997,6.46713149 C3.9877344,6.90012591 4.57508189,7.14347576 5.18731308,7.14347576 C5.79954427,7.14347576 6.38691129,6.90015194 6.81988619,6.46713149 C7.25288061,6.03413706 7.49597011,5.44704992 7.49597011,4.83455838 C7.49520739,4.22256802 7.25188474,3.63574124 6.8191702,3.2030267 C6.38617578,2.77003228 5.799349,2.52668243 5.18737817,2.52596644 L5.18731308,2.52590135 Z M5.18731308,5.71957937 C4.82932121,5.71957937 4.5066729,5.50397063 4.36965965,5.17318614 C4.2328677,4.84265551 4.30838381,4.46201902 4.5616214,4.20882114 C4.81460449,3.95583804 5.19522796,3.88006744 5.52598641,4.01711323 C5.85651705,4.15415903 6.07212579,4.47680734 6.07212579,4.8345714 C6.06576941,5.32071134 5.67319917,5.71301836 5.18730006,5.71965748 L5.18731308,5.71957937 Z" id="Shape"></path>
                        <path d="M15.5423906,14.7882294 C15.1493091,14.7882294 14.8304425,15.1068096 14.8304425,15.5001776 L14.8304425,17.6694782 C14.8304425,18.0625598 15.1492765,18.3814264 15.5423906,18.3814264 C15.9355048,18.3814264 16.2543388,18.0625923 16.2543388,17.6694782 L16.2543388,15.5001776 C16.2543388,15.3112686 16.1793363,15.1302353 16.0458509,14.9967499 C15.9123655,14.8632645 15.7313388,14.7882294 15.5424232,14.7882294 L15.5423906,14.7882294 Z" id="Path"></path>
                        <path d="M20.0986508,14.7882294 C19.7055692,14.7882294 19.3867026,15.1068096 19.3867026,15.5001776 L19.3867026,17.6694782 C19.3867026,18.0625598 19.7055367,18.3814264 20.0986508,18.3814264 C20.4917649,18.3814264 20.810599,18.0625923 20.810599,17.6694782 L20.810599,15.5001776 C20.810599,15.3112686 20.7355965,15.1302353 20.602111,14.9967499 C20.4686256,14.8632645 20.2875989,14.7882294 20.0986834,14.7882294 L20.0986508,14.7882294 Z" id="Path"></path>
                        <path d="M5.18731308,14.2766265 C4.57506888,14.2766265 3.98771487,14.5196965 3.55473997,14.9527104 C3.12176508,15.3857244 2.8783957,15.9730523 2.8783957,16.5852835 C2.8783957,17.1975147 3.12171952,17.7848817 3.55473997,18.2178566 C3.98776043,18.6508315 4.57508189,18.8939405 5.18731308,18.8939405 C5.79954427,18.8939405 6.38691129,18.6508706 6.81988619,18.2178566 C7.25288061,17.7848622 7.49597011,17.1975147 7.49597011,16.5852835 C7.49520739,15.9732932 7.25188474,15.3864664 6.8191702,14.9534915 C6.38617578,14.5207509 5.799349,14.2771472 5.18737817,14.2766916 L5.18731308,14.2766265 Z M5.18731308,17.4703045 L5.18731308,17.4700503 C4.82932121,17.4700503 4.5066729,17.2544415 4.36965965,16.9239109 C4.2328677,16.5931264 4.30838381,16.2124834 4.5616214,15.9595459 C4.81460449,15.7065628 5.19522796,15.6307922 5.52598641,15.7675841 C5.85651705,15.9046299 6.07212579,16.2272782 6.07212579,16.5852376 C6.06576941,17.0711172 5.67319917,17.4636845 5.18730006,17.4700633 L5.18731308,17.4703045 Z" id="Shape"></path>
                        <path d="M22.4555391,24.2776176 C22.0309347,24.2778718 21.6164712,24.4070349 21.2673966,24.6485752 C20.9183025,24.8898618 20.6510778,25.232089 20.5010988,25.6292126 L15.1739194,25.6292126 C15.0399263,25.1034137 14.7645654,24.6241667 14.3778756,24.2432634 C13.9914071,23.862386 13.5078252,23.5943998 12.9799499,23.4685689 L12.9799499,21.4289265 L20.8394987,21.4289265 C21.7776978,21.4324862 22.6782751,21.0612754 23.3414063,20.3976496 C24.0045374,19.7340238 24.3749613,18.8329648 24.3706003,17.8950261 L24.3706003,15.2746558 C24.3746684,14.3372378 24.0039646,13.4371811 23.3406252,12.7745707 C22.6774941,12.1119603 21.7769818,11.7417967 20.8394987,11.7468737 L12.9799499,11.7468737 L12.9799499,9.68230203 L20.8394987,9.68230203 C21.7779581,9.68509886 22.6787959,9.31312129 23.3416015,8.64874696 C24.0047326,7.9846395 24.3751566,7.0830207 24.3706003,6.14456128 L24.3706003,3.52419097 C24.3744142,2.58722862 24.0034569,1.68743232 23.3401045,1.02560299 C22.6769733,0.363773656 21.7764611,-0.0054135957 20.8394987,6.00068987e-05 L3.6962444,6.00068987e-05 C2.75928204,-0.00540956016 1.85876976,0.363767148 1.19563864,1.02560299 C0.53231225,1.68743232 0.161302494,2.58722862 0.165142771,3.52419097 L0.165142771,6.14456128 C0.160566203,7.0830207 0.531016971,7.98437914 1.19388123,8.64874696 C1.85701235,9.31285442 2.75778498,9.68510088 3.6962444,9.68230203 L11.5557932,9.68230203 L11.5557932,11.7468737 L3.6962444,11.7468737 C2.75882641,11.7417886 1.85824905,12.1119863 1.19511793,12.7745707 C0.531791535,13.4371811 0.161042136,14.3372378 0.165142771,15.2746558 L0.165142771,17.8950261 C0.160820442,18.8329648 0.531270819,19.7340629 1.19433685,20.3976496 C1.85740288,21.0612363 2.75798025,21.4324414 3.6962444,21.4289265 L11.5557932,21.4289265 L11.5557932,23.4685689 C11.0279569,23.5944259 10.5443685,23.8624121 10.1578675,24.2432634 C9.77114513,24.6241407 9.49577778,25.1034202 9.36182373,25.6292126 L4.03464435,25.6292126 C3.8576792,25.1512088 3.51189811,24.7548012 3.06214316,24.5148165 C2.61262253,24.275053 2.09061832,24.2081867 1.59535284,24.3274305 C1.09980747,24.4464205 0.665289958,24.7431372 0.373884576,25.1613563 C0.0825052291,25.5793541 -0.0453824848,26.0896618 0.0143696128,26.5958623 C0.0741197577,27.1018284 0.317439021,27.5683634 0.698068995,27.9070888 C1.07894631,28.2460095 1.57065791,28.4331416 2.08017797,28.4336493 C2.97717542,28.4336493 3.74327802,27.9073427 4.03461831,27.0530374 L9.36205805,27.0530374 C9.57588985,27.9266677 10.17138,28.6578824 10.9839565,29.0438627 C11.7962726,29.4298235 12.7393534,29.4298235 13.5516695,29.0438627 C14.3642459,28.6579019 14.9597491,27.9266677 15.1735679,27.0530374 L20.5010076,27.0530374 C20.6367777,27.4618771 20.8996804,27.8167968 21.2510331,28.0657639 C21.6026658,28.3149327 22.0244909,28.4453654 22.4551876,28.4379973 C23.1983787,28.4379973 23.8851373,28.0413553 24.2566027,27.3978682 C24.6280681,26.7543485 24.6280681,25.9613444 24.2566027,25.3178052 C23.8851373,24.6742856 23.1983787,24.2776761 22.4551876,24.2776761 L22.4555391,24.2776176 Z M23.0179508,6.19382097 C23.0179508,6.76030079 22.7929367,7.30340049 22.3924805,7.70409103 C21.9917769,8.10454074 21.4486837,8.32956141 20.8822104,8.32956141 L3.7252873,8.32956141 C3.15880748,8.32956141 2.61570777,8.10454725 2.21501724,7.70409103 C1.81456753,7.30338748 1.58954686,6.76029428 1.58954686,6.19382097 L1.58954686,3.55971679 C1.58954686,2.99323696 1.81456102,2.45013726 2.21501724,2.04944672 C2.61572079,1.64899701 3.15881398,1.42397634 3.7252873,1.42397634 L20.8822104,1.42397634 C21.4486902,1.42397634 21.9917899,1.64899051 22.3924805,2.04944672 C22.7929302,2.45015028 23.0179508,2.99324347 23.0179508,3.55971679 L23.0179508,6.19382097 Z M23.0179508,17.9405106 C23.0179508,18.5069904 22.7929367,19.0500901 22.3924805,19.4507806 C21.9917769,19.8512303 21.4486837,20.076251 20.8822104,20.076251 L3.7252873,20.076251 C3.15880748,20.076251 2.61570777,19.8512368 2.21501724,19.4507806 C1.81456753,19.0500771 1.58954686,18.5069839 1.58954686,17.9405106 L1.58954686,15.3064064 C1.58954686,14.7399266 1.81456102,14.1968269 2.21501724,13.7961363 C2.61572079,13.3956866 3.15881398,13.1706659 3.7252873,13.1706659 L20.8822104,13.1706659 C21.4486902,13.1706659 21.9917899,13.3956801 22.3924805,13.7961363 C22.7929302,14.1968399 23.0179508,14.7399331 23.0179508,15.3064064 L23.0179508,17.9405106 Z M2.0806336,27.0309135 C1.81519239,27.0309135 1.57593666,26.8709758 1.47423442,26.6258685 C1.37278604,26.3805139 1.42897709,26.0982861 1.61661755,25.9106658 C1.80425736,25.723026 2.08648514,25.6668343 2.33182022,25.7682827 C2.57692098,25.8699849 2.73685222,26.1092407 2.73685222,26.3746819 C2.73659798,26.7369957 2.44293439,27.0306531 2.08062058,27.0309135 L2.0806336,27.0309135 Z M12.2684313,27.9431939 C11.8524708,27.9431939 11.4535116,27.7779254 11.1593725,27.4837537 C10.8652008,27.1898359 10.6999323,26.7908767 10.6999323,26.3749552 C10.6999323,25.9590338 10.8652008,25.5600356 11.1593725,25.2658964 C11.4535442,24.9717247 11.8524448,24.8064562 12.2684313,24.8064562 C12.6844179,24.8064562 13.083351,24.9717247 13.3772298,25.2658964 C13.6714015,25.5600681 13.83667,25.9589687 13.83667,26.3749552 C13.8412466,26.7921915 13.677253,27.1936501 13.3823133,27.4885703 C13.0871197,27.7837639 12.6856611,27.9475029 12.2684378,27.9431809 L12.2684313,27.9431939 Z M22.4562291,27.0311608 C22.1907878,27.0311608 21.9515321,26.8712361 21.8498299,26.6261288 C21.7483815,26.3807742 21.804318,26.0985465 21.992213,25.9109262 C22.1798528,25.7230325 22.4620806,25.6670947 22.7071553,25.768543 C22.9525099,25.8699914 23.1124412,26.109501 23.1124412,26.3749422 C23.1119327,26.7370022 22.8185233,27.0303928 22.4562095,27.0309135 L22.4562291,27.0311608 Z" id="Shape"></path>
                    </g>
                </g>
            </g>
        </g>
    </g>
</svg>